<?xml version="1.0" encoding="UTF-8" standalone="no"?><svg xmlns="http://www.w3.org/2000/svg" xmlns:xlink="http://www.w3.org/1999/xlink" clip-rule="evenodd" stroke-miterlimit="4.00" viewBox="0 0 960 540"><desc>SVG generated by Keynote</desc><defs></defs><g transform="matrix(1.00, 0.00, -0.00, -1.00, 0.0, 540.0)"><path d="M 0.0 540.0 L 960.0 540.0 L 960.0 0.0 L 0.0 0.0 Z M 0.0 540.0 " fill="#FFFFFF"></path><g><clipPath id="clip-12"><path d="M 45.1 184.0 L 913.9 184.0 L 913.9 401.8 L 45.1 401.8 Z M 45.1 184.0 "></path></clipPath><g clip-path="url(#clip-12)"><text xml:space="preserve" font-family="Helvetica-Light" font-size="96.0" fill="#000000" transform="matrix(1.00, 0.00, -0.00, -1.00, 251.0, 206.0)">R</text><text xml:space="preserve" font-family="Helvetica-Light" font-size="96.0" fill="#000000" transform="matrix(1.00, 0.00, -0.00, -1.00, 315.0, 206.0)">e</text><text xml:space="preserve" font-family="Helvetica-Light" font-size="96.0" fill="#000000" transform="matrix(1.00, 0.00, -0.00, -1.00, 368.4, 206.0)">s</text><text xml:space="preserve" font-family="Helvetica-Light" font-size="96.0" fill="#000000" transform="matrix(1.00, 0.00, -0.00, -1.00, 416.4, 206.0)">o</text><text xml:space="preserve" font-family="Helvetica-Light" font-size="96.0" fill="#000000" transform="matrix(1.00, 0.00, -0.00, -1.00, 469.8, 206.0)">u</text><text xml:space="preserve" font-family="Helvetica-Light" font-size="96.0" fill="#000000" transform="matrix(1.00, 0.00, -0.00, -1.00, 523.2, 206.0)">r</text><text xml:space="preserve" font-family="Helvetica-Light" font-size="96.0" fill="#000000" transform="matrix(1.00, 0.00, -0.00, -1.00, 553.4, 206.0)">c</text><text xml:space="preserve" font-family="Helvetica-Light" font-size="96.0" fill="#000000" transform="matrix(1.00, 0.00, -0.00, -1.00, 606.8, 206.0)">e</text><text xml:space="preserve" font-family="Helvetica-Light" font-size="96.0" fill="#000000" transform="matrix(1.00, 0.00, -0.00, -1.00, 660.2, 206.0)">s</text></g></g></g></svg>