<?xml version="1.0" encoding="UTF-8" standalone="no"?><svg xmlns="http://www.w3.org/2000/svg" xmlns:xlink="http://www.w3.org/1999/xlink" clip-rule="evenodd" stroke-miterlimit="4.00" viewBox="0 0 960 540"><desc>SVG generated by Keynote</desc><defs></defs><g transform="matrix(1.00, 0.00, -0.00, -1.00, 0.0, 540.0)"><path d="M 0.0 540.0 L 960.0 540.0 L 960.0 0.0 L 0.0 0.0 Z M 0.0 540.0 " fill="#FFFFFF"></path><g><clipPath id="clip-0"><path d="M 252.0 521.0 L 720.0 521.0 L 720.0 153.0 L 252.0 153.0 Z M 252.1 520.8 "></path></clipPath><g clip-path="url(#clip-0)"><image xlink:href="9EFCD1CB9AAFC75BA4B2FF7891DC685A.jpeg" width="1003.00" height="768.00" transform="matrix(1.73, 0.00, -0.00, -1.73, -154.0, 1512.0)"></image></g></g><text xml:space="preserve" font-family="TrebuchetMS" font-size="35.6" fill="#000000" transform="matrix(1.00, 0.00, -0.00, -1.00, 70.0, 149.0)">P</text><text xml:space="preserve" font-family="TrebuchetMS" font-size="35.6" fill="#000000" transform="matrix(1.00, 0.00, -0.00, -1.00, 88.2, 149.0)">r</text><text xml:space="preserve" font-family="TrebuchetMS" font-size="35.6" fill="#000000" transform="matrix(1.00, 0.00, -0.00, -1.00, 102.0, 149.0)">o</text><text xml:space="preserve" font-family="TrebuchetMS" font-size="35.6" fill="#000000" transform="matrix(1.00, 0.00, -0.00, -1.00, 121.1, 149.0)">s</text><text xml:space="preserve" font-family="TrebuchetMS" font-size="35.6" fill="#000000" transform="matrix(1.00, 0.00, -0.00, -1.00, 135.6, 149.0)">:</text><text xml:space="preserve" font-family="TrebuchetMS" font-size="35.6" fill="#000000" transform="matrix(1.00, 0.00, -0.00, -1.00, 148.7, 149.0)"> </text><text xml:space="preserve" font-family="TrebuchetMS" font-size="35.6" fill="#000000" transform="matrix(1.00, 0.00, -0.00, -1.00, 159.4, 149.0)">f</text><text xml:space="preserve" font-family="TrebuchetMS" font-size="35.6" fill="#000000" transform="matrix(1.00, 0.00, -0.00, -1.00, 172.6, 149.0)">a</text><text xml:space="preserve" font-family="TrebuchetMS" font-size="35.6" fill="#000000" transform="matrix(1.00, 0.00, -0.00, -1.00, 191.3, 149.0)">s</text><text xml:space="preserve" font-family="TrebuchetMS" font-size="35.6" fill="#000000" transform="matrix(1.00, 0.00, -0.00, -1.00, 205.8, 149.0)">t</text><text xml:space="preserve" font-family="TrebuchetMS" font-size="35.6" fill="#000000" transform="matrix(1.00, 0.00, -0.00, -1.00, 219.9, 149.0)">e</text><text xml:space="preserve" font-family="TrebuchetMS" font-size="35.6" fill="#000000" transform="matrix(1.00, 0.00, -0.00, -1.00, 239.4, 149.0)">r</text><text xml:space="preserve" font-family="TrebuchetMS" font-size="35.6" fill="#000000" transform="matrix(1.00, 0.00, -0.00, -1.00, 253.2, 149.0)"> </text><text xml:space="preserve" font-family="TrebuchetMS" font-size="35.6" fill="#000000" transform="matrix(1.00, 0.00, -0.00, -1.00, 264.0, 149.0)">t</text><text xml:space="preserve" font-family="TrebuchetMS" font-size="35.6" fill="#000000" transform="matrix(1.00, 0.00, -0.00, -1.00, 278.1, 149.0)">h</text><text xml:space="preserve" font-family="TrebuchetMS" font-size="35.6" fill="#000000" transform="matrix(1.00, 0.00, -0.00, -1.00, 297.6, 149.0)">e</text><text xml:space="preserve" font-family="TrebuchetMS" font-size="35.6" fill="#000000" transform="matrix(1.00, 0.00, -0.00, -1.00, 317.1, 149.0)"> </text><text xml:space="preserve" font-family="TrebuchetMS" font-size="35.6" fill="#000000" transform="matrix(1.00, 0.00, -0.00, -1.00, 325.9, 149.0)">A</text><text xml:space="preserve" font-family="TrebuchetMS" font-size="35.6" fill="#000000" transform="matrix(1.00, 0.00, -0.00, -1.00, 346.9, 149.0)">+</text><text xml:space="preserve" font-family="TrebuchetMS" font-size="35.6" fill="#000000" transform="matrix(1.00, 0.00, -0.00, -1.00, 365.6, 149.0)">,</text><text xml:space="preserve" font-family="TrebuchetMS" font-size="35.6" fill="#000000" transform="matrix(1.00, 0.00, -0.00, -1.00, 378.7, 149.0)"> </text><text xml:space="preserve" font-family="TrebuchetMS" font-size="35.6" fill="#000000" transform="matrix(1.00, 0.00, -0.00, -1.00, 389.5, 149.0)">l</text><text xml:space="preserve" font-family="TrebuchetMS" font-size="35.6" fill="#000000" transform="matrix(1.00, 0.00, -0.00, -1.00, 400.0, 149.0)">o</text><text xml:space="preserve" font-family="TrebuchetMS" font-size="35.6" fill="#000000" transform="matrix(1.00, 0.00, -0.00, -1.00, 419.1, 149.0)">w</text><text xml:space="preserve" font-family="TrebuchetMS" font-size="35.6" fill="#000000" transform="matrix(1.00, 0.00, -0.00, -1.00, 445.6, 149.0)"> </text><text xml:space="preserve" font-family="TrebuchetMS" font-size="35.6" fill="#000000" transform="matrix(1.00, 0.00, -0.00, -1.00, 456.4, 149.0)">p</text><text xml:space="preserve" font-family="TrebuchetMS" font-size="35.6" fill="#000000" transform="matrix(1.00, 0.00, -0.00, -1.00, 476.2, 149.0)">o</text><text xml:space="preserve" font-family="TrebuchetMS" font-size="35.6" fill="#000000" transform="matrix(1.00, 0.00, -0.00, -1.00, 495.3, 149.0)">w</text><text xml:space="preserve" font-family="TrebuchetMS" font-size="35.6" fill="#000000" transform="matrix(1.00, 0.00, -0.00, -1.00, 521.8, 149.0)">e</text><text xml:space="preserve" font-family="TrebuchetMS" font-size="35.6" fill="#000000" transform="matrix(1.00, 0.00, -0.00, -1.00, 541.3, 149.0)">r</text><text xml:space="preserve" font-family="TrebuchetMS" font-size="35.6" fill="#000000" transform="matrix(1.00, 0.00, -0.00, -1.00, 555.1, 149.0)"> </text><text xml:space="preserve" font-family="TrebuchetMS" font-size="35.6" fill="#000000" transform="matrix(1.00, 0.00, -0.00, -1.00, 565.9, 149.0)">c</text><text xml:space="preserve" font-family="TrebuchetMS" font-size="35.6" fill="#000000" transform="matrix(1.00, 0.00, -0.00, -1.00, 583.5, 149.0)">o</text><text xml:space="preserve" font-family="TrebuchetMS" font-size="35.6" fill="#000000" transform="matrix(1.00, 0.00, -0.00, -1.00, 602.6, 149.0)">n</text><text xml:space="preserve" font-family="TrebuchetMS" font-size="35.6" fill="#000000" transform="matrix(1.00, 0.00, -0.00, -1.00, 622.1, 149.0)">s</text><text xml:space="preserve" font-family="TrebuchetMS" font-size="35.6" fill="#000000" transform="matrix(1.00, 0.00, -0.00, -1.00, 636.6, 149.0)">u</text><text xml:space="preserve" font-family="TrebuchetMS" font-size="35.6" fill="#000000" transform="matrix(1.00, 0.00, -0.00, -1.00, 656.1, 149.0)">m</text><text xml:space="preserve" font-family="TrebuchetMS" font-size="35.6" fill="#000000" transform="matrix(1.00, 0.00, -0.00, -1.00, 685.6, 149.0)">p</text><text xml:space="preserve" font-family="TrebuchetMS" font-size="35.6" fill="#000000" transform="matrix(1.00, 0.00, -0.00, -1.00, 705.5, 149.0)">t</text><text xml:space="preserve" font-family="TrebuchetMS" font-size="35.6" fill="#000000" transform="matrix(1.00, 0.00, -0.00, -1.00, 719.6, 149.0)">i</text><text xml:space="preserve" font-family="TrebuchetMS" font-size="35.6" fill="#000000" transform="matrix(1.00, 0.00, -0.00, -1.00, 729.8, 149.0)">o</text><text xml:space="preserve" font-family="TrebuchetMS" font-size="35.6" fill="#000000" transform="matrix(1.00, 0.00, -0.00, -1.00, 748.9, 149.0)">n</text><text xml:space="preserve" font-family="TrebuchetMS" font-size="35.6" fill="#000000" transform="matrix(1.00, 0.00, -0.00, -1.00, 768.4, 149.0)">,</text><text xml:space="preserve" font-family="TrebuchetMS" font-size="35.6" fill="#000000" transform="matrix(1.00, 0.00, -0.00, -1.00, 781.5, 149.0)"> </text><text xml:space="preserve" font-family="TrebuchetMS" font-size="35.6" fill="#000000" transform="matrix(1.00, 0.00, -0.00, -1.00, 70.0, 112.0)">s</text><text xml:space="preserve" font-family="TrebuchetMS" font-size="35.6" fill="#000000" transform="matrix(1.00, 0.00, -0.00, -1.00, 84.4, 112.0)">m</text><text xml:space="preserve" font-family="TrebuchetMS" font-size="35.6" fill="#000000" transform="matrix(1.00, 0.00, -0.00, -1.00, 114.0, 112.0)">a</text><text xml:space="preserve" font-family="TrebuchetMS" font-size="35.6" fill="#000000" transform="matrix(1.00, 0.00, -0.00, -1.00, 132.7, 112.0)">l</text><text xml:space="preserve" font-family="TrebuchetMS" font-size="35.6" fill="#000000" transform="matrix(1.00, 0.00, -0.00, -1.00, 143.3, 112.0)">l</text><text xml:space="preserve" font-family="TrebuchetMS" font-size="35.6" fill="#000000" transform="matrix(1.00, 0.00, -0.00, -1.00, 153.8, 112.0)">e</text><text xml:space="preserve" font-family="TrebuchetMS" font-size="35.6" fill="#000000" transform="matrix(1.00, 0.00, -0.00, -1.00, 173.2, 112.0)">s</text><text xml:space="preserve" font-family="TrebuchetMS" font-size="35.6" fill="#000000" transform="matrix(1.00, 0.00, -0.00, -1.00, 187.6, 112.0)">t</text><text xml:space="preserve" font-family="TrebuchetMS" font-size="35.6" fill="#000000" transform="matrix(1.00, 0.00, -0.00, -1.00, 201.8, 112.0)"> </text><text xml:space="preserve" font-family="TrebuchetMS" font-size="35.6" fill="#000000" transform="matrix(1.00, 0.00, -0.00, -1.00, 212.6, 112.0)">P</text><text xml:space="preserve" font-family="TrebuchetMS" font-size="35.6" fill="#000000" transform="matrix(1.00, 0.00, -0.00, -1.00, 230.8, 112.0)">i</text><text xml:space="preserve" font-family="TrebuchetMS" font-size="35.6" fill="#000000" transform="matrix(1.00, 0.00, -0.00, -1.00, 240.9, 112.0)"> </text><text xml:space="preserve" font-family="TrebuchetMS" font-size="35.6" fill="#000000" transform="matrix(1.00, 0.00, -0.00, -1.00, 70.0, 66.0)">5</text><text xml:space="preserve" font-family="TrebuchetMS" font-size="35.6" fill="#000000" transform="matrix(1.00, 0.00, -0.00, -1.00, 88.7, 66.0)">1</text><text xml:space="preserve" font-family="TrebuchetMS" font-size="35.6" fill="#000000" transform="matrix(1.00, 0.00, -0.00, -1.00, 107.4, 66.0)">2</text><text xml:space="preserve" font-family="TrebuchetMS" font-size="35.6" fill="#000000" transform="matrix(1.00, 0.00, -0.00, -1.00, 126.1, 66.0)"> </text><text xml:space="preserve" font-family="TrebuchetMS" font-size="35.6" fill="#000000" transform="matrix(1.00, 0.00, -0.00, -1.00, 136.9, 66.0)">M</text><text xml:space="preserve" font-family="TrebuchetMS" font-size="35.6" fill="#000000" transform="matrix(1.00, 0.00, -0.00, -1.00, 162.2, 66.0)">B</text><text xml:space="preserve" font-family="LucidaGrande" font-size="35.6" fill="#000000" transform="matrix(1.00, 0.00, -0.00, -1.00, 182.3, 66.0)"> </text><text xml:space="preserve" font-family="TrebuchetMS" font-size="35.6" fill="#000000" transform="matrix(1.00, 0.00, -0.00, -1.00, 70.0, 29.0)">C</text><text xml:space="preserve" font-family="TrebuchetMS" font-size="35.6" fill="#000000" transform="matrix(1.00, 0.00, -0.00, -1.00, 91.3, 29.0)">o</text><text xml:space="preserve" font-family="TrebuchetMS" font-size="35.6" fill="#000000" transform="matrix(1.00, 0.00, -0.00, -1.00, 110.4, 29.0)">n</text><text xml:space="preserve" font-family="TrebuchetMS" font-size="35.6" fill="#000000" transform="matrix(1.00, 0.00, -0.00, -1.00, 129.9, 29.0)">s</text><text xml:space="preserve" font-family="TrebuchetMS" font-size="35.6" fill="#000000" transform="matrix(1.00, 0.00, -0.00, -1.00, 144.3, 29.0)">:</text><text xml:space="preserve" font-family="TrebuchetMS" font-size="35.6" fill="#000000" transform="matrix(1.00, 0.00, -0.00, -1.00, 157.4, 29.0)"> </text><text xml:space="preserve" font-family="TrebuchetMS" font-size="35.6" fill="#000000" transform="matrix(1.00, 0.00, -0.00, -1.00, 168.2, 29.0)">n</text><text xml:space="preserve" font-family="TrebuchetMS" font-size="35.6" fill="#000000" transform="matrix(1.00, 0.00, -0.00, -1.00, 187.6, 29.0)">o</text><text xml:space="preserve" font-family="TrebuchetMS" font-size="35.6" fill="#000000" transform="matrix(1.00, 0.00, -0.00, -1.00, 206.7, 29.0)"> </text><text xml:space="preserve" font-family="TrebuchetMS" font-size="35.6" fill="#000000" transform="matrix(1.00, 0.00, -0.00, -1.00, 217.5, 29.0)">c</text><text xml:space="preserve" font-family="TrebuchetMS" font-size="35.6" fill="#000000" transform="matrix(1.00, 0.00, -0.00, -1.00, 235.1, 29.0)">a</text><text xml:space="preserve" font-family="TrebuchetMS" font-size="35.6" fill="#000000" transform="matrix(1.00, 0.00, -0.00, -1.00, 253.8, 29.0)">m</text><text xml:space="preserve" font-family="TrebuchetMS" font-size="35.6" fill="#000000" transform="matrix(1.00, 0.00, -0.00, -1.00, 283.4, 29.0)">e</text><text xml:space="preserve" font-family="TrebuchetMS" font-size="35.6" fill="#000000" transform="matrix(1.00, 0.00, -0.00, -1.00, 302.9, 29.0)">r</text><text xml:space="preserve" font-family="TrebuchetMS" font-size="35.6" fill="#000000" transform="matrix(1.00, 0.00, -0.00, -1.00, 316.7, 29.0)">a</text><text xml:space="preserve" font-family="TrebuchetMS" font-size="35.6" fill="#000000" transform="matrix(1.00, 0.00, -0.00, -1.00, 335.5, 29.0)"> </text><text xml:space="preserve" font-family="TrebuchetMS" font-size="35.6" fill="#000000" transform="matrix(1.00, 0.00, -0.00, -1.00, 346.2, 29.0)">p</text><text xml:space="preserve" font-family="TrebuchetMS" font-size="35.6" fill="#000000" transform="matrix(1.00, 0.00, -0.00, -1.00, 366.1, 29.0)">o</text><text xml:space="preserve" font-family="TrebuchetMS" font-size="35.6" fill="#000000" transform="matrix(1.00, 0.00, -0.00, -1.00, 385.1, 29.0)">r</text><text xml:space="preserve" font-family="TrebuchetMS" font-size="35.6" fill="#000000" transform="matrix(1.00, 0.00, -0.00, -1.00, 399.0, 29.0)">t</text><text xml:space="preserve" font-family="TrebuchetMS" font-size="35.6" fill="#000000" transform="matrix(1.00, 0.00, -0.00, -1.00, 413.1, 29.0)">,</text><text xml:space="preserve" font-family="TrebuchetMS" font-size="35.6" fill="#000000" transform="matrix(1.00, 0.00, -0.00, -1.00, 426.2, 29.0)"> </text><text xml:space="preserve" font-family="TrebuchetMS" font-size="35.6" fill="#000000" transform="matrix(1.00, 0.00, -0.00, -1.00, 437.0, 29.0)">n</text><text xml:space="preserve" font-family="TrebuchetMS" font-size="35.6" fill="#000000" transform="matrix(1.00, 0.00, -0.00, -1.00, 456.4, 29.0)">o</text><text xml:space="preserve" font-family="TrebuchetMS" font-size="35.6" fill="#000000" transform="matrix(1.00, 0.00, -0.00, -1.00, 475.5, 29.0)"> </text><text xml:space="preserve" font-family="TrebuchetMS" font-size="35.6" fill="#000000" transform="matrix(1.00, 0.00, -0.00, -1.00, 486.3, 29.0)">b</text><text xml:space="preserve" font-family="TrebuchetMS" font-size="35.6" fill="#000000" transform="matrix(1.00, 0.00, -0.00, -1.00, 506.1, 29.0)">u</text><text xml:space="preserve" font-family="TrebuchetMS" font-size="35.6" fill="#000000" transform="matrix(1.00, 0.00, -0.00, -1.00, 525.6, 29.0)">i</text><text xml:space="preserve" font-family="TrebuchetMS" font-size="35.6" fill="#000000" transform="matrix(1.00, 0.00, -0.00, -1.00, 535.8, 29.0)">l</text><text xml:space="preserve" font-family="TrebuchetMS" font-size="35.6" fill="#000000" transform="matrix(1.00, 0.00, -0.00, -1.00, 546.3, 29.0)">t</text><text xml:space="preserve" font-family="TrebuchetMS" font-size="35.6" fill="#000000" transform="matrix(1.00, 0.00, -0.00, -1.00, 560.4, 29.0)"> </text><text xml:space="preserve" font-family="TrebuchetMS" font-size="35.6" fill="#000000" transform="matrix(1.00, 0.00, -0.00, -1.00, 571.2, 29.0)">i</text><text xml:space="preserve" font-family="TrebuchetMS" font-size="35.6" fill="#000000" transform="matrix(1.00, 0.00, -0.00, -1.00, 581.3, 29.0)">n</text><text xml:space="preserve" font-family="TrebuchetMS" font-size="35.6" fill="#000000" transform="matrix(1.00, 0.00, -0.00, -1.00, 600.8, 29.0)"> </text><text xml:space="preserve" font-family="TrebuchetMS" font-size="35.6" fill="#000000" transform="matrix(1.00, 0.00, -0.00, -1.00, 611.6, 29.0)">B</text><text xml:space="preserve" font-family="TrebuchetMS" font-size="35.6" fill="#000000" transform="matrix(1.00, 0.00, -0.00, -1.00, 631.7, 29.0)">l</text><text xml:space="preserve" font-family="TrebuchetMS" font-size="35.6" fill="#000000" transform="matrix(1.00, 0.00, -0.00, -1.00, 642.2, 29.0)">u</text><text xml:space="preserve" font-family="TrebuchetMS" font-size="35.6" fill="#000000" transform="matrix(1.00, 0.00, -0.00, -1.00, 661.7, 29.0)">e</text><text xml:space="preserve" font-family="TrebuchetMS" font-size="35.6" fill="#000000" transform="matrix(1.00, 0.00, -0.00, -1.00, 681.2, 29.0)">t</text><text xml:space="preserve" font-family="TrebuchetMS" font-size="35.6" fill="#000000" transform="matrix(1.00, 0.00, -0.00, -1.00, 695.3, 29.0)">o</text><text xml:space="preserve" font-family="TrebuchetMS" font-size="35.6" fill="#000000" transform="matrix(1.00, 0.00, -0.00, -1.00, 714.4, 29.0)">o</text><text xml:space="preserve" font-family="TrebuchetMS" font-size="35.6" fill="#000000" transform="matrix(1.00, 0.00, -0.00, -1.00, 733.5, 29.0)">t</text><text xml:space="preserve" font-family="TrebuchetMS" font-size="35.6" fill="#000000" transform="matrix(1.00, 0.00, -0.00, -1.00, 747.6, 29.0)">h</text><text xml:space="preserve" font-family="TrebuchetMS" font-size="35.6" fill="#000000" transform="matrix(1.00, 0.00, -0.00, -1.00, 767.1, 29.0)">/</text><text xml:space="preserve" font-family="TrebuchetMS" font-size="35.6" fill="#000000" transform="matrix(1.00, 0.00, -0.00, -1.00, 785.8, 29.0)">W</text><text xml:space="preserve" font-family="TrebuchetMS" font-size="35.6" fill="#000000" transform="matrix(1.00, 0.00, -0.00, -1.00, 815.7, 29.0)">i</text><text xml:space="preserve" font-family="TrebuchetMS" font-size="35.6" fill="#000000" transform="matrix(1.00, 0.00, -0.00, -1.00, 825.8, 29.0)">F</text><text xml:space="preserve" font-family="TrebuchetMS" font-size="35.6" fill="#000000" transform="matrix(1.00, 0.00, -0.00, -1.00, 844.5, 29.0)">i</text><text xml:space="preserve" font-family="TrebuchetMS" font-size="35.6" fill="#000000" transform="matrix(1.00, 0.00, -0.00, -1.00, 854.7, 29.0)">,</text><text xml:space="preserve" font-family="TrebuchetMS" font-size="35.6" fill="#000000" transform="matrix(1.00, 0.00, -0.00, -1.00, 867.8, 29.0)"> </text></g></svg>