<?xml version="1.0" encoding="UTF-8" standalone="no"?><svg xmlns="http://www.w3.org/2000/svg" xmlns:xlink="http://www.w3.org/1999/xlink" clip-rule="evenodd" stroke-miterlimit="4.00" viewBox="0 0 960 540"><desc>SVG generated by Keynote</desc><defs></defs><g transform="matrix(1.00, 0.00, -0.00, -1.00, 0.0, 540.0)"><path d="M 0.0 540.0 L 960.0 540.0 L 960.0 0.0 L 0.0 0.0 Z M 0.0 540.0 " fill="#FFFFFF"></path><g><clipPath id="clip-11"><path d="M 108.6 267.2 L 851.4 267.2 L 851.4 448.0 L 108.6 448.0 Z M 108.6 267.2 "></path></clipPath><g clip-path="url(#clip-11)"><text xml:space="preserve" font-family="Helvetica-Light" font-size="60.0" fill="#000000" transform="matrix(1.00, 0.00, -0.00, -1.00, 197.0, 281.0)">C</text><text xml:space="preserve" font-family="Helvetica-Light" font-size="60.0" fill="#000000" transform="matrix(1.00, 0.00, -0.00, -1.00, 240.3, 281.0)">o</text><text xml:space="preserve" font-family="Helvetica-Light" font-size="60.0" fill="#000000" transform="matrix(1.00, 0.00, -0.00, -1.00, 273.7, 281.0)">n</text><text xml:space="preserve" font-family="Helvetica-Light" font-size="60.0" fill="#000000" transform="matrix(1.00, 0.00, -0.00, -1.00, 307.0, 281.0)">t</text><text xml:space="preserve" font-family="Helvetica-Light" font-size="60.0" fill="#000000" transform="matrix(1.00, 0.00, -0.00, -1.00, 323.7, 281.0)">r</text><text xml:space="preserve" font-family="Helvetica-Light" font-size="60.0" fill="#000000" transform="matrix(1.00, 0.00, -0.00, -1.00, 342.6, 281.0)">o</text><text xml:space="preserve" font-family="Helvetica-Light" font-size="60.0" fill="#000000" transform="matrix(1.00, 0.00, -0.00, -1.00, 376.0, 281.0)">l</text><text xml:space="preserve" font-family="Helvetica-Light" font-size="60.0" fill="#000000" transform="matrix(1.00, 0.00, -0.00, -1.00, 389.3, 281.0)">l</text><text xml:space="preserve" font-family="Helvetica-Light" font-size="60.0" fill="#000000" transform="matrix(1.00, 0.00, -0.00, -1.00, 402.6, 281.0)">i</text><text xml:space="preserve" font-family="Helvetica-Light" font-size="60.0" fill="#000000" transform="matrix(1.00, 0.00, -0.00, -1.00, 415.9, 281.0)">n</text><text xml:space="preserve" font-family="Helvetica-Light" font-size="60.0" fill="#000000" transform="matrix(1.00, 0.00, -0.00, -1.00, 449.3, 281.0)">g</text><text xml:space="preserve" font-family="Helvetica-Light" font-size="60.0" fill="#000000" transform="matrix(1.00, 0.00, -0.00, -1.00, 486.0, 281.0)"> </text><text xml:space="preserve" font-family="Helvetica-Light" font-size="60.0" fill="#000000" transform="matrix(1.00, 0.00, -0.00, -1.00, 502.6, 281.0)">t</text><text xml:space="preserve" font-family="Helvetica-Light" font-size="60.0" fill="#000000" transform="matrix(1.00, 0.00, -0.00, -1.00, 519.3, 281.0)">h</text><text xml:space="preserve" font-family="Helvetica-Light" font-size="60.0" fill="#000000" transform="matrix(1.00, 0.00, -0.00, -1.00, 552.7, 281.0)">e</text><text xml:space="preserve" font-family="Helvetica-Light" font-size="60.0" fill="#000000" transform="matrix(1.00, 0.00, -0.00, -1.00, 586.0, 281.0)"> </text><text xml:space="preserve" font-family="Helvetica-Light" font-size="60.0" fill="#000000" transform="matrix(1.00, 0.00, -0.00, -1.00, 602.7, 281.0)">R</text><text xml:space="preserve" font-family="Helvetica-Light" font-size="60.0" fill="#000000" transform="matrix(1.00, 0.00, -0.00, -1.00, 642.7, 281.0)">o</text><text xml:space="preserve" font-family="Helvetica-Light" font-size="60.0" fill="#000000" transform="matrix(1.00, 0.00, -0.00, -1.00, 676.1, 281.0)">b</text><text xml:space="preserve" font-family="Helvetica-Light" font-size="60.0" fill="#000000" transform="matrix(1.00, 0.00, -0.00, -1.00, 712.8, 281.0)">o</text><text xml:space="preserve" font-family="Helvetica-Light" font-size="60.0" fill="#000000" transform="matrix(1.00, 0.00, -0.00, -1.00, 746.1, 281.0)">t</text></g></g></g></svg>