<?xml version="1.0" encoding="UTF-8" standalone="no"?><svg xmlns="http://www.w3.org/2000/svg" xmlns:xlink="http://www.w3.org/1999/xlink" clip-rule="evenodd" stroke-miterlimit="4.00" viewBox="0 0 960 540"><desc>SVG generated by Keynote</desc><defs></defs><g transform="matrix(1.00, 0.00, -0.00, -1.00, 0.0, 540.0)"><path d="M 0.0 540.0 L 960.0 540.0 L 960.0 0.0 L 0.0 0.0 Z M 0.0 540.0 " fill="#FFFFFF"></path><text xml:space="preserve" font-family="Helvetica-Light" font-size="80.0" fill="#000000" transform="matrix(1.00, 0.00, -0.00, -1.00, 279.0, 430.0)">I</text><text xml:space="preserve" font-family="Helvetica-Light" font-size="80.0" fill="#000000" transform="matrix(1.00, 0.00, -0.00, -1.00, 301.2, 430.0)">n</text><text xml:space="preserve" font-family="Helvetica-Light" font-size="80.0" fill="#000000" transform="matrix(1.00, 0.00, -0.00, -1.00, 345.7, 430.0)">f</text><text xml:space="preserve" font-family="Helvetica-Light" font-size="80.0" fill="#000000" transform="matrix(1.00, 0.00, -0.00, -1.00, 368.0, 430.0)">o</text><text xml:space="preserve" font-family="Helvetica-Light" font-size="80.0" fill="#000000" transform="matrix(1.00, 0.00, -0.00, -1.00, 412.4, 430.0)">r</text><text xml:space="preserve" font-family="Helvetica-Light" font-size="80.0" fill="#000000" transform="matrix(1.00, 0.00, -0.00, -1.00, 440.5, 430.0)">m</text><text xml:space="preserve" font-family="Helvetica-Light" font-size="80.0" fill="#000000" transform="matrix(1.00, 0.00, -0.00, -1.00, 507.2, 430.0)">a</text><text xml:space="preserve" font-family="Helvetica-Light" font-size="80.0" fill="#000000" transform="matrix(1.00, 0.00, -0.00, -1.00, 551.6, 430.0)">t</text><text xml:space="preserve" font-family="Helvetica-Light" font-size="80.0" fill="#000000" transform="matrix(1.00, 0.00, -0.00, -1.00, 573.9, 430.0)">i</text><text xml:space="preserve" font-family="Helvetica-Light" font-size="80.0" fill="#000000" transform="matrix(1.00, 0.00, -0.00, -1.00, 591.6, 430.0)">o</text><text xml:space="preserve" font-family="Helvetica-Light" font-size="80.0" fill="#000000" transform="matrix(1.00, 0.00, -0.00, -1.00, 636.1, 430.0)">n</text><text xml:space="preserve" font-family="ArialMT" font-size="28.0" fill="#000000" transform="matrix(1.00, 0.00, -0.00, -1.00, 69.6, 367.0)">•</text><text xml:space="preserve" font-family="TrebuchetMS" font-size="28.0" fill="#000000" transform="matrix(1.00, 0.00, -0.00, -1.00, 88.0, 367.0)">T</text><text xml:space="preserve" font-family="TrebuchetMS" font-size="28.0" fill="#000000" transform="matrix(1.00, 0.00, -0.00, -1.00, 104.2, 367.0)">h</text><text xml:space="preserve" font-family="TrebuchetMS" font-size="28.0" fill="#000000" transform="matrix(1.00, 0.00, -0.00, -1.00, 119.6, 367.0)">e</text><text xml:space="preserve" font-family="TrebuchetMS" font-size="28.0" fill="#000000" transform="matrix(1.00, 0.00, -0.00, -1.00, 134.8, 367.0)"> </text><text xml:space="preserve" font-family="TrebuchetMS" font-size="28.0" fill="#000000" transform="matrix(1.00, 0.00, -0.00, -1.00, 143.3, 367.0)">R</text><text xml:space="preserve" font-family="TrebuchetMS" font-size="28.0" fill="#000000" transform="matrix(1.00, 0.00, -0.00, -1.00, 159.6, 367.0)">a</text><text xml:space="preserve" font-family="TrebuchetMS" font-size="28.0" fill="#000000" transform="matrix(1.00, 0.00, -0.00, -1.00, 174.3, 367.0)">s</text><text xml:space="preserve" font-family="TrebuchetMS" font-size="28.0" fill="#000000" transform="matrix(1.00, 0.00, -0.00, -1.00, 185.6, 367.0)">p</text><text xml:space="preserve" font-family="TrebuchetMS" font-size="28.0" fill="#000000" transform="matrix(1.00, 0.00, -0.00, -1.00, 201.2, 367.0)">b</text><text xml:space="preserve" font-family="TrebuchetMS" font-size="28.0" fill="#000000" transform="matrix(1.00, 0.00, -0.00, -1.00, 216.8, 367.0)">e</text><text xml:space="preserve" font-family="TrebuchetMS" font-size="28.0" fill="#000000" transform="matrix(1.00, 0.00, -0.00, -1.00, 232.1, 367.0)">r</text><text xml:space="preserve" font-family="TrebuchetMS" font-size="28.0" fill="#000000" transform="matrix(1.00, 0.00, -0.00, -1.00, 243.0, 367.0)">r</text><text xml:space="preserve" font-family="TrebuchetMS" font-size="28.0" fill="#000000" transform="matrix(1.00, 0.00, -0.00, -1.00, 253.9, 367.0)">y</text><text xml:space="preserve" font-family="TrebuchetMS" font-size="28.0" fill="#000000" transform="matrix(1.00, 0.00, -0.00, -1.00, 267.7, 367.0)"> </text><text xml:space="preserve" font-family="TrebuchetMS" font-size="28.0" fill="#000000" transform="matrix(1.00, 0.00, -0.00, -1.00, 276.1, 367.0)">P</text><text xml:space="preserve" font-family="TrebuchetMS" font-size="28.0" fill="#000000" transform="matrix(1.00, 0.00, -0.00, -1.00, 290.4, 367.0)">i</text><text xml:space="preserve" font-family="TrebuchetMS" font-size="28.0" fill="#000000" transform="matrix(1.00, 0.00, -0.00, -1.00, 298.4, 367.0)"> </text><text xml:space="preserve" font-family="TrebuchetMS" font-size="28.0" fill="#000000" transform="matrix(1.00, 0.00, -0.00, -1.00, 306.8, 367.0)">f</text><text xml:space="preserve" font-family="TrebuchetMS" font-size="28.0" fill="#000000" transform="matrix(1.00, 0.00, -0.00, -1.00, 317.2, 367.0)">o</text><text xml:space="preserve" font-family="TrebuchetMS" font-size="28.0" fill="#000000" transform="matrix(1.00, 0.00, -0.00, -1.00, 332.2, 367.0)">u</text><text xml:space="preserve" font-family="TrebuchetMS" font-size="28.0" fill="#000000" transform="matrix(1.00, 0.00, -0.00, -1.00, 347.5, 367.0)">n</text><text xml:space="preserve" font-family="TrebuchetMS" font-size="28.0" fill="#000000" transform="matrix(1.00, 0.00, -0.00, -1.00, 362.8, 367.0)">d</text><text xml:space="preserve" font-family="TrebuchetMS" font-size="28.0" fill="#000000" transform="matrix(1.00, 0.00, -0.00, -1.00, 378.4, 367.0)">a</text><text xml:space="preserve" font-family="TrebuchetMS" font-size="28.0" fill="#000000" transform="matrix(1.00, 0.00, -0.00, -1.00, 393.1, 367.0)">t</text><text xml:space="preserve" font-family="TrebuchetMS" font-size="28.0" fill="#000000" transform="matrix(1.00, 0.00, -0.00, -1.00, 404.3, 367.0)">i</text><text xml:space="preserve" font-family="TrebuchetMS" font-size="28.0" fill="#000000" transform="matrix(1.00, 0.00, -0.00, -1.00, 412.2, 367.0)">o</text><text xml:space="preserve" font-family="TrebuchetMS" font-size="28.0" fill="#000000" transform="matrix(1.00, 0.00, -0.00, -1.00, 427.3, 367.0)">n</text><text xml:space="preserve" font-family="TrebuchetMS" font-size="28.0" fill="#000000" transform="matrix(1.00, 0.00, -0.00, -1.00, 442.6, 367.0)">:</text><text xml:space="preserve" font-family="TrebuchetMS" font-size="28.0" fill="#000000" transform="matrix(1.00, 0.00, -0.00, -1.00, 452.9, 367.0)"> </text><text xml:space="preserve" font-family="TrebuchetMS" font-size="28.0" fill="#0463C1" transform="matrix(1.00, 0.00, -0.00, -1.00, 461.2, 367.0)">w</text><text xml:space="preserve" font-family="TrebuchetMS" font-size="28.0" fill="#0463C1" transform="matrix(1.00, 0.00, -0.00, -1.00, 482.1, 367.0)">w</text><text xml:space="preserve" font-family="TrebuchetMS" font-size="28.0" fill="#0463C1" transform="matrix(1.00, 0.00, -0.00, -1.00, 502.9, 367.0)">w</text><text xml:space="preserve" font-family="TrebuchetMS" font-size="28.0" fill="#0463C1" transform="matrix(1.00, 0.00, -0.00, -1.00, 520.8, 367.0)">.</text><text xml:space="preserve" font-family="TrebuchetMS" font-size="28.0" fill="#0463C1" transform="matrix(1.00, 0.00, -0.00, -1.00, 531.0, 367.0)">r</text><text xml:space="preserve" font-family="TrebuchetMS" font-size="28.0" fill="#0463C1" transform="matrix(1.00, 0.00, -0.00, -1.00, 541.9, 367.0)">a</text><text xml:space="preserve" font-family="TrebuchetMS" font-size="28.0" fill="#0463C1" transform="matrix(1.00, 0.00, -0.00, -1.00, 556.6, 367.0)">s</text><text xml:space="preserve" font-family="TrebuchetMS" font-size="28.0" fill="#0463C1" transform="matrix(1.00, 0.00, -0.00, -1.00, 568.0, 367.0)">p</text><text xml:space="preserve" font-family="TrebuchetMS" font-size="28.0" fill="#0463C1" transform="matrix(1.00, 0.00, -0.00, -1.00, 583.6, 367.0)">b</text><text xml:space="preserve" font-family="TrebuchetMS" font-size="28.0" fill="#0463C1" transform="matrix(1.00, 0.00, -0.00, -1.00, 599.2, 367.0)">e</text><text xml:space="preserve" font-family="TrebuchetMS" font-size="28.0" fill="#0463C1" transform="matrix(1.00, 0.00, -0.00, -1.00, 614.5, 367.0)">r</text><text xml:space="preserve" font-family="TrebuchetMS" font-size="28.0" fill="#0463C1" transform="matrix(1.00, 0.00, -0.00, -1.00, 625.3, 367.0)">y</text><text xml:space="preserve" font-family="TrebuchetMS" font-size="28.0" fill="#0463C1" transform="matrix(1.00, 0.00, -0.00, -1.00, 639.2, 367.0)">p</text><text xml:space="preserve" font-family="TrebuchetMS" font-size="28.0" fill="#0463C1" transform="matrix(1.00, 0.00, -0.00, -1.00, 654.8, 367.0)">i</text><text xml:space="preserve" font-family="TrebuchetMS" font-size="28.0" fill="#0463C1" transform="matrix(1.00, 0.00, -0.00, -1.00, 662.7, 367.0)">.</text><text xml:space="preserve" font-family="TrebuchetMS" font-size="28.0" fill="#0463C1" transform="matrix(1.00, 0.00, -0.00, -1.00, 673.0, 367.0)">o</text><text xml:space="preserve" font-family="TrebuchetMS" font-size="28.0" fill="#0463C1" transform="matrix(1.00, 0.00, -0.00, -1.00, 688.0, 367.0)">r</text><text xml:space="preserve" font-family="TrebuchetMS" font-size="28.0" fill="#0463C1" transform="matrix(1.00, 0.00, -0.00, -1.00, 698.9, 367.0)">g</text><text xml:space="preserve" font-family="TrebuchetMS" font-size="28.0" fill="#000000" transform="matrix(1.00, 0.00, -0.00, -1.00, 713.0, 367.0)"> </text><g><clipPath id="clip-20"><path d="M 459.8 361.4 L 712.6 361.4 L 712.6 365.2 L 459.8 365.2 Z M 459.8 361.4 "></path></clipPath><g clip-path="url(#clip-20)"><path d="M 394.8 32.9 L 646.6 32.9 " fill="none" stroke="#0463C1" stroke-width="1.74" stroke-miterlimit="0.00" transform="matrix(1.00, 0.00, 0.00, -1.00, 66.0, 396.2)"></path></g></g><text xml:space="preserve" font-family="ArialMT" font-size="28.0" fill="#000000" transform="matrix(1.00, 0.00, -0.00, -1.00, 69.6, 328.2)">•</text><text xml:space="preserve" font-family="TrebuchetMS" font-size="28.0" fill="#000000" transform="matrix(1.00, 0.00, -0.00, -1.00, 88.0, 328.0)">P</text><text xml:space="preserve" font-family="TrebuchetMS" font-size="28.0" fill="#000000" transform="matrix(1.00, 0.00, -0.00, -1.00, 102.3, 328.0)">i</text><text xml:space="preserve" font-family="TrebuchetMS" font-size="28.0" fill="#000000" transform="matrix(1.00, 0.00, -0.00, -1.00, 110.3, 328.0)">m</text><text xml:space="preserve" font-family="TrebuchetMS" font-size="28.0" fill="#000000" transform="matrix(1.00, 0.00, -0.00, -1.00, 133.5, 328.0)">o</text><text xml:space="preserve" font-family="TrebuchetMS" font-size="28.0" fill="#000000" transform="matrix(1.00, 0.00, -0.00, -1.00, 148.5, 328.0)">r</text><text xml:space="preserve" font-family="TrebuchetMS" font-size="28.0" fill="#000000" transform="matrix(1.00, 0.00, -0.00, -1.00, 159.4, 328.0)">o</text><text xml:space="preserve" font-family="TrebuchetMS" font-size="28.0" fill="#000000" transform="matrix(1.00, 0.00, -0.00, -1.00, 174.4, 328.0)">n</text><text xml:space="preserve" font-family="TrebuchetMS" font-size="28.0" fill="#000000" transform="matrix(1.00, 0.00, -0.00, -1.00, 189.8, 328.0)">i</text><text xml:space="preserve" font-family="TrebuchetMS" font-size="28.0" fill="#000000" transform="matrix(1.00, 0.00, -0.00, -1.00, 197.8, 328.0)">:</text><text xml:space="preserve" font-family="TrebuchetMS" font-size="28.0" fill="#000000" transform="matrix(1.00, 0.00, -0.00, -1.00, 208.1, 328.0)"> </text><text xml:space="preserve" font-family="TrebuchetMS" font-size="28.0" fill="#0463C1" transform="matrix(1.00, 0.00, -0.00, -1.00, 216.5, 328.0)">w</text><text xml:space="preserve" font-family="TrebuchetMS" font-size="28.0" fill="#0463C1" transform="matrix(1.00, 0.00, -0.00, -1.00, 237.3, 328.0)">w</text><text xml:space="preserve" font-family="TrebuchetMS" font-size="28.0" fill="#0463C1" transform="matrix(1.00, 0.00, -0.00, -1.00, 258.1, 328.0)">w</text><text xml:space="preserve" font-family="TrebuchetMS" font-size="28.0" fill="#0463C1" transform="matrix(1.00, 0.00, -0.00, -1.00, 276.0, 328.0)">.</text><text xml:space="preserve" font-family="TrebuchetMS" font-size="28.0" fill="#0463C1" transform="matrix(1.00, 0.00, -0.00, -1.00, 286.3, 328.0)">p</text><text xml:space="preserve" font-family="TrebuchetMS" font-size="28.0" fill="#0463C1" transform="matrix(1.00, 0.00, -0.00, -1.00, 301.9, 328.0)">i</text><text xml:space="preserve" font-family="TrebuchetMS" font-size="28.0" fill="#0463C1" transform="matrix(1.00, 0.00, -0.00, -1.00, 309.9, 328.0)">m</text><text xml:space="preserve" font-family="TrebuchetMS" font-size="28.0" fill="#0463C1" transform="matrix(1.00, 0.00, -0.00, -1.00, 333.1, 328.0)">o</text><text xml:space="preserve" font-family="TrebuchetMS" font-size="28.0" fill="#0463C1" transform="matrix(1.00, 0.00, -0.00, -1.00, 348.1, 328.0)">r</text><text xml:space="preserve" font-family="TrebuchetMS" font-size="28.0" fill="#0463C1" transform="matrix(1.00, 0.00, -0.00, -1.00, 359.0, 328.0)">o</text><text xml:space="preserve" font-family="TrebuchetMS" font-size="28.0" fill="#0463C1" transform="matrix(1.00, 0.00, -0.00, -1.00, 374.0, 328.0)">n</text><text xml:space="preserve" font-family="TrebuchetMS" font-size="28.0" fill="#0463C1" transform="matrix(1.00, 0.00, -0.00, -1.00, 389.3, 328.0)">i</text><text xml:space="preserve" font-family="TrebuchetMS" font-size="28.0" fill="#0463C1" transform="matrix(1.00, 0.00, -0.00, -1.00, 397.3, 328.0)">.</text><text xml:space="preserve" font-family="TrebuchetMS" font-size="28.0" fill="#0463C1" transform="matrix(1.00, 0.00, -0.00, -1.00, 407.6, 328.0)">c</text><text xml:space="preserve" font-family="TrebuchetMS" font-size="28.0" fill="#0463C1" transform="matrix(1.00, 0.00, -0.00, -1.00, 421.5, 328.0)">o</text><text xml:space="preserve" font-family="TrebuchetMS" font-size="28.0" fill="#0463C1" transform="matrix(1.00, 0.00, -0.00, -1.00, 436.5, 328.0)">m</text><text xml:space="preserve" font-family="TrebuchetMS" font-size="28.0" fill="#000000" transform="matrix(1.00, 0.00, -0.00, -1.00, 459.7, 328.0)"> </text><g><clipPath id="clip-21"><path d="M 215.1 322.6 L 459.3 322.6 L 459.3 326.4 L 215.1 326.4 Z M 215.1 322.6 "></path></clipPath><g clip-path="url(#clip-21)"><path d="M 150.1 71.7 L 393.3 71.7 " fill="none" stroke="#0463C1" stroke-width="1.74" stroke-miterlimit="0.00" transform="matrix(1.00, 0.00, 0.00, -1.00, 66.0, 396.2)"></path></g></g><text xml:space="preserve" font-family="ArialMT" font-size="28.0" fill="#000000" transform="matrix(1.00, 0.00, -0.00, -1.00, 69.6, 289.4)">•</text><text xml:space="preserve" font-family="TrebuchetMS" font-size="28.0" fill="#000000" transform="matrix(1.00, 0.00, -0.00, -1.00, 88.0, 289.0)">P</text><text xml:space="preserve" font-family="TrebuchetMS" font-size="28.0" fill="#000000" transform="matrix(1.00, 0.00, -0.00, -1.00, 102.3, 289.0)">i</text><text xml:space="preserve" font-family="TrebuchetMS" font-size="28.0" fill="#000000" transform="matrix(1.00, 0.00, -0.00, -1.00, 110.3, 289.0)">B</text><text xml:space="preserve" font-family="TrebuchetMS" font-size="28.0" fill="#000000" transform="matrix(1.00, 0.00, -0.00, -1.00, 126.1, 289.0)">o</text><text xml:space="preserve" font-family="TrebuchetMS" font-size="28.0" fill="#000000" transform="matrix(1.00, 0.00, -0.00, -1.00, 141.1, 289.0)">r</text><text xml:space="preserve" font-family="TrebuchetMS" font-size="28.0" fill="#000000" transform="matrix(1.00, 0.00, -0.00, -1.00, 152.0, 289.0)">g</text><text xml:space="preserve" font-family="TrebuchetMS" font-size="28.0" fill="#000000" transform="matrix(1.00, 0.00, -0.00, -1.00, 166.1, 289.0)">:</text><text xml:space="preserve" font-family="TrebuchetMS" font-size="28.0" fill="#000000" transform="matrix(1.00, 0.00, -0.00, -1.00, 176.4, 289.0)"> </text><text xml:space="preserve" font-family="TrebuchetMS" font-size="28.0" fill="#0463C1" transform="matrix(1.00, 0.00, -0.00, -1.00, 184.8, 289.0)">w</text><text xml:space="preserve" font-family="TrebuchetMS" font-size="28.0" fill="#0463C1" transform="matrix(1.00, 0.00, -0.00, -1.00, 205.6, 289.0)">w</text><text xml:space="preserve" font-family="TrebuchetMS" font-size="28.0" fill="#0463C1" transform="matrix(1.00, 0.00, -0.00, -1.00, 226.5, 289.0)">w</text><text xml:space="preserve" font-family="TrebuchetMS" font-size="28.0" fill="#0463C1" transform="matrix(1.00, 0.00, -0.00, -1.00, 244.4, 289.0)">.</text><text xml:space="preserve" font-family="TrebuchetMS" font-size="28.0" fill="#0463C1" transform="matrix(1.00, 0.00, -0.00, -1.00, 254.6, 289.0)">p</text><text xml:space="preserve" font-family="TrebuchetMS" font-size="28.0" fill="#0463C1" transform="matrix(1.00, 0.00, -0.00, -1.00, 270.3, 289.0)">i</text><text xml:space="preserve" font-family="TrebuchetMS" font-size="28.0" fill="#0463C1" transform="matrix(1.00, 0.00, -0.00, -1.00, 278.2, 289.0)">b</text><text xml:space="preserve" font-family="TrebuchetMS" font-size="28.0" fill="#0463C1" transform="matrix(1.00, 0.00, -0.00, -1.00, 293.8, 289.0)">o</text><text xml:space="preserve" font-family="TrebuchetMS" font-size="28.0" fill="#0463C1" transform="matrix(1.00, 0.00, -0.00, -1.00, 308.9, 289.0)">r</text><text xml:space="preserve" font-family="TrebuchetMS" font-size="28.0" fill="#0463C1" transform="matrix(1.00, 0.00, -0.00, -1.00, 319.7, 289.0)">g</text><text xml:space="preserve" font-family="TrebuchetMS" font-size="28.0" fill="#0463C1" transform="matrix(1.00, 0.00, -0.00, -1.00, 333.8, 289.0)">.</text><text xml:space="preserve" font-family="TrebuchetMS" font-size="28.0" fill="#0463C1" transform="matrix(1.00, 0.00, -0.00, -1.00, 344.1, 289.0)">o</text><text xml:space="preserve" font-family="TrebuchetMS" font-size="28.0" fill="#0463C1" transform="matrix(1.00, 0.00, -0.00, -1.00, 359.1, 289.0)">r</text><text xml:space="preserve" font-family="TrebuchetMS" font-size="28.0" fill="#0463C1" transform="matrix(1.00, 0.00, -0.00, -1.00, 370.0, 289.0)">g</text><text xml:space="preserve" font-family="TrebuchetMS" font-size="28.0" fill="#000000" transform="matrix(1.00, 0.00, -0.00, -1.00, 384.0, 289.0)"> </text><g><clipPath id="clip-22"><path d="M 183.4 283.8 L 383.6 283.8 L 383.6 287.6 L 183.4 287.6 Z M 183.4 283.8 "></path></clipPath><g clip-path="url(#clip-22)"><path d="M 118.4 110.5 L 317.6 110.5 " fill="none" stroke="#0463C1" stroke-width="1.74" stroke-miterlimit="0.00" transform="matrix(1.00, 0.00, 0.00, -1.00, 66.0, 396.2)"></path></g></g><text xml:space="preserve" font-family="ArialMT" font-size="28.0" fill="#000000" transform="matrix(1.00, 0.00, -0.00, -1.00, 69.6, 250.6)">•</text><text xml:space="preserve" font-family="TrebuchetMS" font-size="28.0" fill="#000000" transform="matrix(1.00, 0.00, -0.00, -1.00, 88.0, 250.0)">A</text><text xml:space="preserve" font-family="TrebuchetMS" font-size="28.0" fill="#000000" transform="matrix(1.00, 0.00, -0.00, -1.00, 104.5, 250.0)">d</text><text xml:space="preserve" font-family="TrebuchetMS" font-size="28.0" fill="#000000" transform="matrix(1.00, 0.00, -0.00, -1.00, 120.1, 250.0)">a</text><text xml:space="preserve" font-family="TrebuchetMS" font-size="28.0" fill="#000000" transform="matrix(1.00, 0.00, -0.00, -1.00, 134.8, 250.0)">f</text><text xml:space="preserve" font-family="TrebuchetMS" font-size="28.0" fill="#000000" transform="matrix(1.00, 0.00, -0.00, -1.00, 145.2, 250.0)">r</text><text xml:space="preserve" font-family="TrebuchetMS" font-size="28.0" fill="#000000" transform="matrix(1.00, 0.00, -0.00, -1.00, 156.1, 250.0)">u</text><text xml:space="preserve" font-family="TrebuchetMS" font-size="28.0" fill="#000000" transform="matrix(1.00, 0.00, -0.00, -1.00, 171.4, 250.0)">i</text><text xml:space="preserve" font-family="TrebuchetMS" font-size="28.0" fill="#000000" transform="matrix(1.00, 0.00, -0.00, -1.00, 179.4, 250.0)">t</text><text xml:space="preserve" font-family="TrebuchetMS" font-size="28.0" fill="#000000" transform="matrix(1.00, 0.00, -0.00, -1.00, 190.5, 250.0)">:</text><text xml:space="preserve" font-family="TrebuchetMS" font-size="28.0" fill="#000000" transform="matrix(1.00, 0.00, -0.00, -1.00, 200.8, 250.0)"> </text><text xml:space="preserve" font-family="TrebuchetMS" font-size="28.0" fill="#0463C1" transform="matrix(1.00, 0.00, -0.00, -1.00, 209.2, 250.0)">w</text><text xml:space="preserve" font-family="TrebuchetMS" font-size="28.0" fill="#0463C1" transform="matrix(1.00, 0.00, -0.00, -1.00, 230.0, 250.0)">w</text><text xml:space="preserve" font-family="TrebuchetMS" font-size="28.0" fill="#0463C1" transform="matrix(1.00, 0.00, -0.00, -1.00, 250.8, 250.0)">w</text><text xml:space="preserve" font-family="TrebuchetMS" font-size="28.0" fill="#0463C1" transform="matrix(1.00, 0.00, -0.00, -1.00, 268.7, 250.0)">.</text><text xml:space="preserve" font-family="TrebuchetMS" font-size="28.0" fill="#0463C1" transform="matrix(1.00, 0.00, -0.00, -1.00, 279.0, 250.0)">a</text><text xml:space="preserve" font-family="TrebuchetMS" font-size="28.0" fill="#0463C1" transform="matrix(1.00, 0.00, -0.00, -1.00, 293.7, 250.0)">d</text><text xml:space="preserve" font-family="TrebuchetMS" font-size="28.0" fill="#0463C1" transform="matrix(1.00, 0.00, -0.00, -1.00, 309.3, 250.0)">a</text><text xml:space="preserve" font-family="TrebuchetMS" font-size="28.0" fill="#0463C1" transform="matrix(1.00, 0.00, -0.00, -1.00, 324.0, 250.0)">f</text><text xml:space="preserve" font-family="TrebuchetMS" font-size="28.0" fill="#0463C1" transform="matrix(1.00, 0.00, -0.00, -1.00, 334.3, 250.0)">r</text><text xml:space="preserve" font-family="TrebuchetMS" font-size="28.0" fill="#0463C1" transform="matrix(1.00, 0.00, -0.00, -1.00, 345.2, 250.0)">u</text><text xml:space="preserve" font-family="TrebuchetMS" font-size="28.0" fill="#0463C1" transform="matrix(1.00, 0.00, -0.00, -1.00, 360.5, 250.0)">i</text><text xml:space="preserve" font-family="TrebuchetMS" font-size="28.0" fill="#0463C1" transform="matrix(1.00, 0.00, -0.00, -1.00, 368.5, 250.0)">t</text><text xml:space="preserve" font-family="TrebuchetMS" font-size="28.0" fill="#0463C1" transform="matrix(1.00, 0.00, -0.00, -1.00, 379.6, 250.0)">.</text><text xml:space="preserve" font-family="TrebuchetMS" font-size="28.0" fill="#0463C1" transform="matrix(1.00, 0.00, -0.00, -1.00, 389.9, 250.0)">c</text><text xml:space="preserve" font-family="TrebuchetMS" font-size="28.0" fill="#0463C1" transform="matrix(1.00, 0.00, -0.00, -1.00, 403.8, 250.0)">o</text><text xml:space="preserve" font-family="TrebuchetMS" font-size="28.0" fill="#0463C1" transform="matrix(1.00, 0.00, -0.00, -1.00, 418.8, 250.0)">m</text><text xml:space="preserve" font-family="TrebuchetMS" font-size="28.0" fill="#000000" transform="matrix(1.00, 0.00, -0.00, -1.00, 442.0, 250.0)"> </text><g><clipPath id="clip-23"><path d="M 207.8 245.0 L 441.6 245.0 L 441.6 248.8 L 207.8 248.8 Z M 207.8 245.0 "></path></clipPath><g clip-path="url(#clip-23)"><path d="M 142.8 149.3 L 375.6 149.3 " fill="none" stroke="#0463C1" stroke-width="1.74" stroke-miterlimit="0.00" transform="matrix(1.00, 0.00, 0.00, -1.00, 66.0, 396.2)"></path></g></g><text xml:space="preserve" font-family="ArialMT" font-size="28.0" fill="#000000" transform="matrix(1.00, 0.00, -0.00, -1.00, 69.6, 211.8)">•</text><text xml:space="preserve" font-family="TrebuchetMS" font-size="28.0" fill="#000000" transform="matrix(1.00, 0.00, -0.00, -1.00, 88.0, 212.0)">M</text><text xml:space="preserve" font-family="TrebuchetMS" font-size="28.0" fill="#000000" transform="matrix(1.00, 0.00, -0.00, -1.00, 107.9, 212.0)">y</text><text xml:space="preserve" font-family="TrebuchetMS" font-size="28.0" fill="#000000" transform="matrix(1.00, 0.00, -0.00, -1.00, 121.7, 212.0)"> </text><text xml:space="preserve" font-family="TrebuchetMS" font-size="28.0" fill="#000000" transform="matrix(1.00, 0.00, -0.00, -1.00, 130.1, 212.0)">b</text><text xml:space="preserve" font-family="TrebuchetMS" font-size="28.0" fill="#000000" transform="matrix(1.00, 0.00, -0.00, -1.00, 145.7, 212.0)">l</text><text xml:space="preserve" font-family="TrebuchetMS" font-size="28.0" fill="#000000" transform="matrix(1.00, 0.00, -0.00, -1.00, 154.0, 212.0)">o</text><text xml:space="preserve" font-family="TrebuchetMS" font-size="28.0" fill="#000000" transform="matrix(1.00, 0.00, -0.00, -1.00, 169.0, 212.0)">g</text><text xml:space="preserve" font-family="TrebuchetMS" font-size="28.0" fill="#000000" transform="matrix(1.00, 0.00, -0.00, -1.00, 183.1, 212.0)">:</text><text xml:space="preserve" font-family="TrebuchetMS" font-size="28.0" fill="#000000" transform="matrix(1.00, 0.00, -0.00, -1.00, 193.4, 212.0)"> </text><text xml:space="preserve" font-family="TrebuchetMS" font-size="28.0" fill="#0463C1" transform="matrix(1.00, 0.00, -0.00, -1.00, 201.8, 212.0)">w</text><text xml:space="preserve" font-family="TrebuchetMS" font-size="28.0" fill="#0463C1" transform="matrix(1.00, 0.00, -0.00, -1.00, 222.6, 212.0)">w</text><text xml:space="preserve" font-family="TrebuchetMS" font-size="28.0" fill="#0463C1" transform="matrix(1.00, 0.00, -0.00, -1.00, 243.4, 212.0)">w</text><text xml:space="preserve" font-family="TrebuchetMS" font-size="28.0" fill="#0463C1" transform="matrix(1.00, 0.00, -0.00, -1.00, 261.3, 212.0)">.</text><text xml:space="preserve" font-family="TrebuchetMS" font-size="28.0" fill="#0463C1" transform="matrix(1.00, 0.00, -0.00, -1.00, 271.6, 212.0)">c</text><text xml:space="preserve" font-family="TrebuchetMS" font-size="28.0" fill="#0463C1" transform="matrix(1.00, 0.00, -0.00, -1.00, 285.5, 212.0)">o</text><text xml:space="preserve" font-family="TrebuchetMS" font-size="28.0" fill="#0463C1" transform="matrix(1.00, 0.00, -0.00, -1.00, 300.5, 212.0)">r</text><text xml:space="preserve" font-family="TrebuchetMS" font-size="28.0" fill="#0463C1" transform="matrix(1.00, 0.00, -0.00, -1.00, 311.3, 212.0)">t</text><text xml:space="preserve" font-family="TrebuchetMS" font-size="28.0" fill="#0463C1" transform="matrix(1.00, 0.00, -0.00, -1.00, 322.5, 212.0)">e</text><text xml:space="preserve" font-family="TrebuchetMS" font-size="28.0" fill="#0463C1" transform="matrix(1.00, 0.00, -0.00, -1.00, 337.7, 212.0)">i</text><text xml:space="preserve" font-family="TrebuchetMS" font-size="28.0" fill="#0463C1" transform="matrix(1.00, 0.00, -0.00, -1.00, 345.7, 212.0)">l</text><text xml:space="preserve" font-family="TrebuchetMS" font-size="28.0" fill="#0463C1" transform="matrix(1.00, 0.00, -0.00, -1.00, 354.0, 212.0)">.</text><text xml:space="preserve" font-family="TrebuchetMS" font-size="28.0" fill="#0463C1" transform="matrix(1.00, 0.00, -0.00, -1.00, 364.3, 212.0)">c</text><text xml:space="preserve" font-family="TrebuchetMS" font-size="28.0" fill="#0463C1" transform="matrix(1.00, 0.00, -0.00, -1.00, 378.1, 212.0)">o</text><text xml:space="preserve" font-family="TrebuchetMS" font-size="28.0" fill="#0463C1" transform="matrix(1.00, 0.00, -0.00, -1.00, 393.1, 212.0)">.</text><text xml:space="preserve" font-family="TrebuchetMS" font-size="28.0" fill="#0463C1" transform="matrix(1.00, 0.00, -0.00, -1.00, 403.4, 212.0)">u</text><text xml:space="preserve" font-family="TrebuchetMS" font-size="28.0" fill="#0463C1" transform="matrix(1.00, 0.00, -0.00, -1.00, 418.7, 212.0)">k</text><text xml:space="preserve" font-family="TrebuchetMS" font-size="28.0" fill="#0463C1" transform="matrix(1.00, 0.00, -0.00, -1.00, 432.8, 212.0)">/</text><text xml:space="preserve" font-family="TrebuchetMS" font-size="28.0" fill="#0463C1" transform="matrix(1.00, 0.00, -0.00, -1.00, 447.5, 212.0)">B</text><text xml:space="preserve" font-family="TrebuchetMS" font-size="28.0" fill="#0463C1" transform="matrix(1.00, 0.00, -0.00, -1.00, 463.4, 212.0)">l</text><text xml:space="preserve" font-family="TrebuchetMS" font-size="28.0" fill="#0463C1" transform="matrix(1.00, 0.00, -0.00, -1.00, 471.6, 212.0)">o</text><text xml:space="preserve" font-family="TrebuchetMS" font-size="28.0" fill="#0463C1" transform="matrix(1.00, 0.00, -0.00, -1.00, 486.6, 212.0)">g</text><text xml:space="preserve" font-family="TrebuchetMS" font-size="28.0" fill="#000000" transform="matrix(1.00, 0.00, -0.00, -1.00, 500.7, 212.0)"> </text><g><clipPath id="clip-24"><path d="M 200.4 206.2 L 500.3 206.2 L 500.3 210.0 L 200.4 210.0 Z M 200.4 206.2 "></path></clipPath><g clip-path="url(#clip-24)"><path d="M 135.4 188.1 L 434.3 188.1 " fill="none" stroke="#0463C1" stroke-width="1.74" stroke-miterlimit="0.00" transform="matrix(1.00, 0.00, 0.00, -1.00, 66.0, 396.2)"></path></g></g><text xml:space="preserve" font-family="ArialMT" font-size="28.0" fill="#000000" transform="matrix(1.00, 0.00, -0.00, -1.00, 69.6, 173.0)">•</text><text xml:space="preserve" font-family="TrebuchetMS" font-size="28.0" fill="#000000" transform="matrix(1.00, 0.00, -0.00, -1.00, 88.0, 173.0)">P</text><text xml:space="preserve" font-family="TrebuchetMS" font-size="28.0" fill="#000000" transform="matrix(1.00, 0.00, -0.00, -1.00, 102.3, 173.0)">i</text><text xml:space="preserve" font-family="TrebuchetMS" font-size="28.0" fill="#000000" transform="matrix(1.00, 0.00, -0.00, -1.00, 110.3, 173.0)">n</text><text xml:space="preserve" font-family="TrebuchetMS" font-size="28.0" fill="#000000" transform="matrix(1.00, 0.00, -0.00, -1.00, 125.6, 173.0)">o</text><text xml:space="preserve" font-family="TrebuchetMS" font-size="28.0" fill="#000000" transform="matrix(1.00, 0.00, -0.00, -1.00, 140.6, 173.0)">u</text><text xml:space="preserve" font-family="TrebuchetMS" font-size="28.0" fill="#000000" transform="matrix(1.00, 0.00, -0.00, -1.00, 155.9, 173.0)">t</text><text xml:space="preserve" font-family="TrebuchetMS" font-size="28.0" fill="#000000" transform="matrix(1.00, 0.00, -0.00, -1.00, 167.1, 173.0)">s</text><text xml:space="preserve" font-family="TrebuchetMS" font-size="28.0" fill="#000000" transform="matrix(1.00, 0.00, -0.00, -1.00, 178.4, 173.0)">:</text><text xml:space="preserve" font-family="TrebuchetMS" font-size="28.0" fill="#000000" transform="matrix(1.00, 0.00, -0.00, -1.00, 188.7, 173.0)"> </text><text xml:space="preserve" font-family="TrebuchetMS" font-size="28.0" fill="#0463C1" transform="matrix(1.00, 0.00, -0.00, -1.00, 197.1, 173.0)">w</text><text xml:space="preserve" font-family="TrebuchetMS" font-size="28.0" fill="#0463C1" transform="matrix(1.00, 0.00, -0.00, -1.00, 217.9, 173.0)">w</text><text xml:space="preserve" font-family="TrebuchetMS" font-size="28.0" fill="#0463C1" transform="matrix(1.00, 0.00, -0.00, -1.00, 238.7, 173.0)">w</text><text xml:space="preserve" font-family="TrebuchetMS" font-size="28.0" fill="#0463C1" transform="matrix(1.00, 0.00, -0.00, -1.00, 256.6, 173.0)">.</text><text xml:space="preserve" font-family="TrebuchetMS" font-size="28.0" fill="#0463C1" transform="matrix(1.00, 0.00, -0.00, -1.00, 266.9, 173.0)">p</text><text xml:space="preserve" font-family="TrebuchetMS" font-size="28.0" fill="#0463C1" transform="matrix(1.00, 0.00, -0.00, -1.00, 282.5, 173.0)">i</text><text xml:space="preserve" font-family="TrebuchetMS" font-size="28.0" fill="#0463C1" transform="matrix(1.00, 0.00, -0.00, -1.00, 290.5, 173.0)">n</text><text xml:space="preserve" font-family="TrebuchetMS" font-size="28.0" fill="#0463C1" transform="matrix(1.00, 0.00, -0.00, -1.00, 305.8, 173.0)">o</text><text xml:space="preserve" font-family="TrebuchetMS" font-size="28.0" fill="#0463C1" transform="matrix(1.00, 0.00, -0.00, -1.00, 320.8, 173.0)">u</text><text xml:space="preserve" font-family="TrebuchetMS" font-size="28.0" fill="#0463C1" transform="matrix(1.00, 0.00, -0.00, -1.00, 336.1, 173.0)">t</text><text xml:space="preserve" font-family="TrebuchetMS" font-size="28.0" fill="#0463C1" transform="matrix(1.00, 0.00, -0.00, -1.00, 347.2, 173.0)">.</text><text xml:space="preserve" font-family="TrebuchetMS" font-size="28.0" fill="#0463C1" transform="matrix(1.00, 0.00, -0.00, -1.00, 357.5, 173.0)">x</text><text xml:space="preserve" font-family="TrebuchetMS" font-size="28.0" fill="#0463C1" transform="matrix(1.00, 0.00, -0.00, -1.00, 371.6, 173.0)">y</text><text xml:space="preserve" font-family="TrebuchetMS" font-size="28.0" fill="#0463C1" transform="matrix(1.00, 0.00, -0.00, -1.00, 385.4, 173.0)">z</text><g><clipPath id="clip-25"><path d="M 195.7 167.4 L 398.2 167.4 L 398.2 171.2 L 195.7 171.2 Z M 195.7 167.4 "></path></clipPath><g clip-path="url(#clip-25)"><path d="M 130.7 226.9 L 332.2 226.9 " fill="none" stroke="#0463C1" stroke-width="1.74" stroke-miterlimit="0.00" transform="matrix(1.00, 0.00, 0.00, -1.00, 66.0, 396.2)"></path></g></g></g></svg>