<?xml version="1.0" encoding="UTF-8" standalone="no"?><svg xmlns="http://www.w3.org/2000/svg" xmlns:xlink="http://www.w3.org/1999/xlink" clip-rule="evenodd" stroke-miterlimit="4.00" viewBox="0 0 960 540"><desc>SVG generated by Keynote</desc><defs></defs><g transform="matrix(1.00, 0.00, -0.00, -1.00, 0.0, 540.0)"><path d="M 0.0 540.0 L 960.0 540.0 L 960.0 0.0 L 0.0 0.0 Z M 0.0 540.0 " fill="#FFFFFF"></path><text xml:space="preserve" font-family="TrebuchetMS" font-size="40.0" fill="#000000" transform="matrix(1.00, 0.00, -0.00, -1.00, 350.0, 17.0)">2</text><text xml:space="preserve" font-family="TrebuchetMS" font-size="40.0" fill="#000000" transform="matrix(1.00, 0.00, -0.00, -1.00, 371.0, 17.0)">0</text><text xml:space="preserve" font-family="TrebuchetMS" font-size="40.0" fill="#000000" transform="matrix(1.00, 0.00, -0.00, -1.00, 392.0, 17.0)">1</text><text xml:space="preserve" font-family="TrebuchetMS" font-size="40.0" fill="#000000" transform="matrix(1.00, 0.00, -0.00, -1.00, 413.0, 17.0)">5</text><text xml:space="preserve" font-family="TrebuchetMS" font-size="40.0" fill="#000000" transform="matrix(1.00, 0.00, -0.00, -1.00, 434.0, 17.0)">:</text><text xml:space="preserve" font-family="TrebuchetMS" font-size="40.0" fill="#000000" transform="matrix(1.00, 0.00, -0.00, -1.00, 448.7, 17.0)"> </text><text xml:space="preserve" font-family="TrebuchetMS" font-size="40.0" fill="#000000" transform="matrix(1.00, 0.00, -0.00, -1.00, 460.7, 17.0)">R</text><text xml:space="preserve" font-family="TrebuchetMS" font-size="40.0" fill="#000000" transform="matrix(1.00, 0.00, -0.00, -1.00, 482.4, 17.0)">e</text><text xml:space="preserve" font-family="TrebuchetMS" font-size="40.0" fill="#000000" transform="matrix(1.00, 0.00, -0.00, -1.00, 504.2, 17.0)">v</text><text xml:space="preserve" font-family="TrebuchetMS" font-size="40.0" fill="#000000" transform="matrix(1.00, 0.00, -0.00, -1.00, 523.8, 17.0)">e</text><text xml:space="preserve" font-family="TrebuchetMS" font-size="40.0" fill="#000000" transform="matrix(1.00, 0.00, -0.00, -1.00, 545.6, 17.0)">n</text><text xml:space="preserve" font-family="TrebuchetMS" font-size="40.0" fill="#000000" transform="matrix(1.00, 0.00, -0.00, -1.00, 567.5, 17.0)">g</text><text xml:space="preserve" font-family="TrebuchetMS" font-size="40.0" fill="#000000" transform="matrix(1.00, 0.00, -0.00, -1.00, 587.6, 17.0)">e</text><image xlink:href="../../2EA84B87-5978-4AD9-83C0-86B484488D7A/assets/A0072AFFB614C69D0CF50BC832844629.jpeg" width="618.00" height="411.00" transform="matrix(1.00, 0.00, -0.00, -1.00, 171.0, 476.0)"></image></g></svg>