<?xml version="1.0" encoding="UTF-8" standalone="no"?><svg xmlns="http://www.w3.org/2000/svg" xmlns:xlink="http://www.w3.org/1999/xlink" clip-rule="evenodd" stroke-miterlimit="4.00" viewBox="0 0 960 540"><desc>SVG generated by Keynote</desc><defs></defs><g transform="matrix(1.00, 0.00, -0.00, -1.00, 0.0, 540.0)"><path d="M 0.0 540.0 L 960.0 540.0 L 960.0 0.0 L 0.0 0.0 Z M 0.0 540.0 " fill="#FFFFFF"></path><g><clipPath id="clip-4"><path d="M 296.0 468.0 L 665.0 468.0 L 665.0 209.0 L 296.0 209.0 Z M 295.5 468.0 "></path></clipPath><g clip-path="url(#clip-4)"><image xlink:href="../../E86E8A18-B01B-420F-86AE-91E1550EBCE5/assets/9EFCD1CB9AAFC75BA4B2FF7891DC685A.jpeg" width="1003.00" height="768.00" transform="matrix(1.39, 0.00, -0.00, -1.39, -40.0, 1012.0)"></image></g></g><text xml:space="preserve" font-family="TrebuchetMS" font-size="40.0" fill="#000000" transform="matrix(1.00, 0.00, -0.00, -1.00, 31.0, 113.0)">P</text><text xml:space="preserve" font-family="TrebuchetMS" font-size="40.0" fill="#000000" transform="matrix(1.00, 0.00, -0.00, -1.00, 51.4, 113.0)">r</text><text xml:space="preserve" font-family="TrebuchetMS" font-size="40.0" fill="#000000" transform="matrix(1.00, 0.00, -0.00, -1.00, 66.9, 113.0)">o</text><text xml:space="preserve" font-family="TrebuchetMS" font-size="40.0" fill="#000000" transform="matrix(1.00, 0.00, -0.00, -1.00, 88.4, 113.0)">s</text><text xml:space="preserve" font-family="TrebuchetMS" font-size="40.0" fill="#000000" transform="matrix(1.00, 0.00, -0.00, -1.00, 104.6, 113.0)">:</text><text xml:space="preserve" font-family="TrebuchetMS" font-size="40.0" fill="#000000" transform="matrix(1.00, 0.00, -0.00, -1.00, 119.3, 113.0)"> </text><text xml:space="preserve" font-family="TrebuchetMS" font-size="40.0" fill="#000000" transform="matrix(1.00, 0.00, -0.00, -1.00, 131.3, 113.0)">f</text><text xml:space="preserve" font-family="TrebuchetMS" font-size="40.0" fill="#000000" transform="matrix(1.00, 0.00, -0.00, -1.00, 146.1, 113.0)">o</text><text xml:space="preserve" font-family="TrebuchetMS" font-size="40.0" fill="#000000" transform="matrix(1.00, 0.00, -0.00, -1.00, 167.6, 113.0)">u</text><text xml:space="preserve" font-family="TrebuchetMS" font-size="40.0" fill="#000000" transform="matrix(1.00, 0.00, -0.00, -1.00, 189.4, 113.0)">r</text><text xml:space="preserve" font-family="TrebuchetMS" font-size="40.0" fill="#000000" transform="matrix(1.00, 0.00, -0.00, -1.00, 205.0, 113.0)"> </text><text xml:space="preserve" font-family="TrebuchetMS" font-size="40.0" fill="#000000" transform="matrix(1.00, 0.00, -0.00, -1.00, 217.0, 113.0)">U</text><text xml:space="preserve" font-family="TrebuchetMS" font-size="40.0" fill="#000000" transform="matrix(1.00, 0.00, -0.00, -1.00, 243.0, 113.0)">S</text><text xml:space="preserve" font-family="TrebuchetMS" font-size="40.0" fill="#000000" transform="matrix(1.00, 0.00, -0.00, -1.00, 262.2, 113.0)">B</text><text xml:space="preserve" font-family="TrebuchetMS" font-size="40.0" fill="#000000" transform="matrix(1.00, 0.00, -0.00, -1.00, 284.8, 113.0)"> </text><text xml:space="preserve" font-family="TrebuchetMS" font-size="40.0" fill="#000000" transform="matrix(1.00, 0.00, -0.00, -1.00, 296.9, 113.0)">p</text><text xml:space="preserve" font-family="TrebuchetMS" font-size="40.0" fill="#000000" transform="matrix(1.00, 0.00, -0.00, -1.00, 319.2, 113.0)">o</text><text xml:space="preserve" font-family="TrebuchetMS" font-size="40.0" fill="#000000" transform="matrix(1.00, 0.00, -0.00, -1.00, 340.7, 113.0)">r</text><text xml:space="preserve" font-family="TrebuchetMS" font-size="40.0" fill="#000000" transform="matrix(1.00, 0.00, -0.00, -1.00, 356.2, 113.0)">t</text><text xml:space="preserve" font-family="TrebuchetMS" font-size="40.0" fill="#000000" transform="matrix(1.00, 0.00, -0.00, -1.00, 372.1, 113.0)">s</text><text xml:space="preserve" font-family="TrebuchetMS" font-size="40.0" fill="#000000" transform="matrix(1.00, 0.00, -0.00, -1.00, 388.2, 113.0)">,</text><text xml:space="preserve" font-family="TrebuchetMS" font-size="40.0" fill="#000000" transform="matrix(1.00, 0.00, -0.00, -1.00, 402.9, 113.0)"> </text><text xml:space="preserve" font-family="TrebuchetMS" font-size="40.0" fill="#000000" transform="matrix(1.00, 0.00, -0.00, -1.00, 415.0, 113.0)">c</text><text xml:space="preserve" font-family="TrebuchetMS" font-size="40.0" fill="#000000" transform="matrix(1.00, 0.00, -0.00, -1.00, 434.8, 113.0)">a</text><text xml:space="preserve" font-family="TrebuchetMS" font-size="40.0" fill="#000000" transform="matrix(1.00, 0.00, -0.00, -1.00, 455.8, 113.0)">m</text><text xml:space="preserve" font-family="TrebuchetMS" font-size="40.0" fill="#000000" transform="matrix(1.00, 0.00, -0.00, -1.00, 489.1, 113.0)">e</text><text xml:space="preserve" font-family="TrebuchetMS" font-size="40.0" fill="#000000" transform="matrix(1.00, 0.00, -0.00, -1.00, 510.9, 113.0)">r</text><text xml:space="preserve" font-family="TrebuchetMS" font-size="40.0" fill="#000000" transform="matrix(1.00, 0.00, -0.00, -1.00, 526.4, 113.0)">a</text><text xml:space="preserve" font-family="TrebuchetMS" font-size="40.0" fill="#000000" transform="matrix(1.00, 0.00, -0.00, -1.00, 547.5, 113.0)"> </text><text xml:space="preserve" font-family="TrebuchetMS" font-size="40.0" fill="#000000" transform="matrix(1.00, 0.00, -0.00, -1.00, 559.5, 113.0)">p</text><text xml:space="preserve" font-family="TrebuchetMS" font-size="40.0" fill="#000000" transform="matrix(1.00, 0.00, -0.00, -1.00, 581.8, 113.0)">o</text><text xml:space="preserve" font-family="TrebuchetMS" font-size="40.0" fill="#000000" transform="matrix(1.00, 0.00, -0.00, -1.00, 603.3, 113.0)">r</text><text xml:space="preserve" font-family="TrebuchetMS" font-size="40.0" fill="#000000" transform="matrix(1.00, 0.00, -0.00, -1.00, 618.8, 113.0)">t</text><text xml:space="preserve" font-family="LucidaGrande" font-size="40.0" fill="#000000" transform="matrix(1.00, 0.00, -0.00, -1.00, 634.6, 113.0)"> </text><text xml:space="preserve" font-family="TrebuchetMS" font-size="40.0" fill="#000000" transform="matrix(1.00, 0.00, -0.00, -1.00, 31.0, 70.0)">C</text><text xml:space="preserve" font-family="TrebuchetMS" font-size="40.0" fill="#000000" transform="matrix(1.00, 0.00, -0.00, -1.00, 54.9, 70.0)">o</text><text xml:space="preserve" font-family="TrebuchetMS" font-size="40.0" fill="#000000" transform="matrix(1.00, 0.00, -0.00, -1.00, 76.4, 70.0)">n</text><text xml:space="preserve" font-family="TrebuchetMS" font-size="40.0" fill="#000000" transform="matrix(1.00, 0.00, -0.00, -1.00, 98.2, 70.0)">s</text><text xml:space="preserve" font-family="TrebuchetMS" font-size="40.0" fill="#000000" transform="matrix(1.00, 0.00, -0.00, -1.00, 114.4, 70.0)">:</text><text xml:space="preserve" font-family="TrebuchetMS" font-size="40.0" fill="#000000" transform="matrix(1.00, 0.00, -0.00, -1.00, 129.1, 70.0)"> </text><text xml:space="preserve" font-family="TrebuchetMS" font-size="40.0" fill="#000000" transform="matrix(1.00, 0.00, -0.00, -1.00, 141.2, 70.0)">p</text><text xml:space="preserve" font-family="TrebuchetMS" font-size="40.0" fill="#000000" transform="matrix(1.00, 0.00, -0.00, -1.00, 163.4, 70.0)">o</text><text xml:space="preserve" font-family="TrebuchetMS" font-size="40.0" fill="#000000" transform="matrix(1.00, 0.00, -0.00, -1.00, 184.9, 70.0)">w</text><text xml:space="preserve" font-family="TrebuchetMS" font-size="40.0" fill="#000000" transform="matrix(1.00, 0.00, -0.00, -1.00, 214.6, 70.0)">e</text><text xml:space="preserve" font-family="TrebuchetMS" font-size="40.0" fill="#000000" transform="matrix(1.00, 0.00, -0.00, -1.00, 236.5, 70.0)">r</text><text xml:space="preserve" font-family="TrebuchetMS" font-size="40.0" fill="#000000" transform="matrix(1.00, 0.00, -0.00, -1.00, 252.0, 70.0)"> </text><text xml:space="preserve" font-family="TrebuchetMS" font-size="40.0" fill="#000000" transform="matrix(1.00, 0.00, -0.00, -1.00, 264.1, 70.0)">c</text><text xml:space="preserve" font-family="TrebuchetMS" font-size="40.0" fill="#000000" transform="matrix(1.00, 0.00, -0.00, -1.00, 283.9, 70.0)">o</text><text xml:space="preserve" font-family="TrebuchetMS" font-size="40.0" fill="#000000" transform="matrix(1.00, 0.00, -0.00, -1.00, 305.3, 70.0)">n</text><text xml:space="preserve" font-family="TrebuchetMS" font-size="40.0" fill="#000000" transform="matrix(1.00, 0.00, -0.00, -1.00, 327.2, 70.0)">s</text><text xml:space="preserve" font-family="TrebuchetMS" font-size="40.0" fill="#000000" transform="matrix(1.00, 0.00, -0.00, -1.00, 343.4, 70.0)">u</text><text xml:space="preserve" font-family="TrebuchetMS" font-size="40.0" fill="#000000" transform="matrix(1.00, 0.00, -0.00, -1.00, 365.2, 70.0)">m</text><text xml:space="preserve" font-family="TrebuchetMS" font-size="40.0" fill="#000000" transform="matrix(1.00, 0.00, -0.00, -1.00, 398.4, 70.0)">p</text><text xml:space="preserve" font-family="TrebuchetMS" font-size="40.0" fill="#000000" transform="matrix(1.00, 0.00, -0.00, -1.00, 420.7, 70.0)">t</text><text xml:space="preserve" font-family="TrebuchetMS" font-size="40.0" fill="#000000" transform="matrix(1.00, 0.00, -0.00, -1.00, 436.6, 70.0)">i</text><text xml:space="preserve" font-family="TrebuchetMS" font-size="40.0" fill="#000000" transform="matrix(1.00, 0.00, -0.00, -1.00, 448.0, 70.0)">o</text><text xml:space="preserve" font-family="TrebuchetMS" font-size="40.0" fill="#000000" transform="matrix(1.00, 0.00, -0.00, -1.00, 469.4, 70.0)">n</text><text xml:space="preserve" font-family="TrebuchetMS" font-size="40.0" fill="#000000" transform="matrix(1.00, 0.00, -0.00, -1.00, 491.3, 70.0)">,</text><text xml:space="preserve" font-family="TrebuchetMS" font-size="40.0" fill="#000000" transform="matrix(1.00, 0.00, -0.00, -1.00, 506.0, 70.0)"> </text><text xml:space="preserve" font-family="TrebuchetMS" font-size="40.0" fill="#000000" transform="matrix(1.00, 0.00, -0.00, -1.00, 518.0, 70.0)">n</text><text xml:space="preserve" font-family="TrebuchetMS" font-size="40.0" fill="#000000" transform="matrix(1.00, 0.00, -0.00, -1.00, 539.9, 70.0)">o</text><text xml:space="preserve" font-family="TrebuchetMS" font-size="40.0" fill="#000000" transform="matrix(1.00, 0.00, -0.00, -1.00, 561.3, 70.0)"> </text><text xml:space="preserve" font-family="TrebuchetMS" font-size="40.0" fill="#000000" transform="matrix(1.00, 0.00, -0.00, -1.00, 573.4, 70.0)">b</text><text xml:space="preserve" font-family="TrebuchetMS" font-size="40.0" fill="#000000" transform="matrix(1.00, 0.00, -0.00, -1.00, 595.7, 70.0)">u</text><text xml:space="preserve" font-family="TrebuchetMS" font-size="40.0" fill="#000000" transform="matrix(1.00, 0.00, -0.00, -1.00, 617.5, 70.0)">i</text><text xml:space="preserve" font-family="TrebuchetMS" font-size="40.0" fill="#000000" transform="matrix(1.00, 0.00, -0.00, -1.00, 628.9, 70.0)">l</text><text xml:space="preserve" font-family="TrebuchetMS" font-size="40.0" fill="#000000" transform="matrix(1.00, 0.00, -0.00, -1.00, 640.7, 70.0)">t</text><text xml:space="preserve" font-family="TrebuchetMS" font-size="40.0" fill="#000000" transform="matrix(1.00, 0.00, -0.00, -1.00, 656.6, 70.0)"> </text><text xml:space="preserve" font-family="TrebuchetMS" font-size="40.0" fill="#000000" transform="matrix(1.00, 0.00, -0.00, -1.00, 668.7, 70.0)">i</text><text xml:space="preserve" font-family="TrebuchetMS" font-size="40.0" fill="#000000" transform="matrix(1.00, 0.00, -0.00, -1.00, 680.1, 70.0)">n</text><text xml:space="preserve" font-family="TrebuchetMS" font-size="40.0" fill="#000000" transform="matrix(1.00, 0.00, -0.00, -1.00, 701.9, 70.0)"> </text><text xml:space="preserve" font-family="TrebuchetMS" font-size="40.0" fill="#000000" transform="matrix(1.00, 0.00, -0.00, -1.00, 714.0, 70.0)">B</text><text xml:space="preserve" font-family="TrebuchetMS" font-size="40.0" fill="#000000" transform="matrix(1.00, 0.00, -0.00, -1.00, 736.6, 70.0)">l</text><text xml:space="preserve" font-family="TrebuchetMS" font-size="40.0" fill="#000000" transform="matrix(1.00, 0.00, -0.00, -1.00, 748.4, 70.0)">u</text><text xml:space="preserve" font-family="TrebuchetMS" font-size="40.0" fill="#000000" transform="matrix(1.00, 0.00, -0.00, -1.00, 770.3, 70.0)">e</text><text xml:space="preserve" font-family="TrebuchetMS" font-size="40.0" fill="#000000" transform="matrix(1.00, 0.00, -0.00, -1.00, 792.1, 70.0)">t</text><text xml:space="preserve" font-family="TrebuchetMS" font-size="40.0" fill="#000000" transform="matrix(1.00, 0.00, -0.00, -1.00, 808.0, 70.0)">o</text><text xml:space="preserve" font-family="TrebuchetMS" font-size="40.0" fill="#000000" transform="matrix(1.00, 0.00, -0.00, -1.00, 829.4, 70.0)">o</text><text xml:space="preserve" font-family="TrebuchetMS" font-size="40.0" fill="#000000" transform="matrix(1.00, 0.00, -0.00, -1.00, 850.8, 70.0)">t</text><text xml:space="preserve" font-family="TrebuchetMS" font-size="40.0" fill="#000000" transform="matrix(1.00, 0.00, -0.00, -1.00, 866.7, 70.0)">h</text><text xml:space="preserve" font-family="TrebuchetMS" font-size="40.0" fill="#000000" transform="matrix(1.00, 0.00, -0.00, -1.00, 888.5, 70.0)">/</text><text xml:space="preserve" font-family="TrebuchetMS" font-size="40.0" fill="#000000" transform="matrix(1.00, 0.00, -0.00, -1.00, 31.0, 28.0)">W</text><text xml:space="preserve" font-family="TrebuchetMS" font-size="40.0" fill="#000000" transform="matrix(1.00, 0.00, -0.00, -1.00, 64.5, 28.0)">i</text><text xml:space="preserve" font-family="TrebuchetMS" font-size="40.0" fill="#000000" transform="matrix(1.00, 0.00, -0.00, -1.00, 76.0, 28.0)">F</text><text xml:space="preserve" font-family="TrebuchetMS" font-size="40.0" fill="#000000" transform="matrix(1.00, 0.00, -0.00, -1.00, 97.0, 28.0)">i</text><text xml:space="preserve" font-family="TrebuchetMS" font-size="40.0" fill="#000000" transform="matrix(1.00, 0.00, -0.00, -1.00, 108.4, 28.0)">,</text><text xml:space="preserve" font-family="TrebuchetMS" font-size="40.0" fill="#000000" transform="matrix(1.00, 0.00, -0.00, -1.00, 123.1, 28.0)"> </text><text xml:space="preserve" font-family="TrebuchetMS" font-size="40.0" fill="#000000" transform="matrix(1.00, 0.00, -0.00, -1.00, 135.2, 28.0)">5</text><text xml:space="preserve" font-family="TrebuchetMS" font-size="40.0" fill="#000000" transform="matrix(1.00, 0.00, -0.00, -1.00, 156.2, 28.0)">1</text><text xml:space="preserve" font-family="TrebuchetMS" font-size="40.0" fill="#000000" transform="matrix(1.00, 0.00, -0.00, -1.00, 177.2, 28.0)">2</text><text xml:space="preserve" font-family="TrebuchetMS" font-size="40.0" fill="#000000" transform="matrix(1.00, 0.00, -0.00, -1.00, 198.1, 28.0)"> </text><text xml:space="preserve" font-family="TrebuchetMS" font-size="40.0" fill="#000000" transform="matrix(1.00, 0.00, -0.00, -1.00, 210.2, 28.0)">M</text><text xml:space="preserve" font-family="TrebuchetMS" font-size="40.0" fill="#000000" transform="matrix(1.00, 0.00, -0.00, -1.00, 238.6, 28.0)">B</text><text xml:space="preserve" font-family="TrebuchetMS" font-size="40.0" fill="#000000" transform="matrix(1.00, 0.00, -0.00, -1.00, 261.3, 28.0)"> </text><text xml:space="preserve" font-family="TrebuchetMS" font-size="40.0" fill="#000000" transform="matrix(1.00, 0.00, -0.00, -1.00, 273.3, 28.0)">m</text><text xml:space="preserve" font-family="TrebuchetMS" font-size="40.0" fill="#000000" transform="matrix(1.00, 0.00, -0.00, -1.00, 306.5, 28.0)">e</text><text xml:space="preserve" font-family="TrebuchetMS" font-size="40.0" fill="#000000" transform="matrix(1.00, 0.00, -0.00, -1.00, 328.4, 28.0)">m</text><text xml:space="preserve" font-family="TrebuchetMS" font-size="40.0" fill="#000000" transform="matrix(1.00, 0.00, -0.00, -1.00, 361.6, 28.0)">o</text><text xml:space="preserve" font-family="TrebuchetMS" font-size="40.0" fill="#000000" transform="matrix(1.00, 0.00, -0.00, -1.00, 383.0, 28.0)">r</text><text xml:space="preserve" font-family="TrebuchetMS" font-size="40.0" fill="#000000" transform="matrix(1.00, 0.00, -0.00, -1.00, 398.6, 28.0)">y</text></g></svg>