<?xml version="1.0" encoding="UTF-8" standalone="no"?><svg xmlns="http://www.w3.org/2000/svg" xmlns:xlink="http://www.w3.org/1999/xlink" clip-rule="evenodd" stroke-miterlimit="4.00" viewBox="0 0 960 540"><desc>SVG generated by Keynote</desc><defs></defs><g transform="matrix(1.00, 0.00, -0.00, -1.00, 0.0, 540.0)"><path d="M 0.0 540.0 L 960.0 540.0 L 960.0 0.0 L 0.0 0.0 Z M 0.0 540.0 " fill="#FFFFFF"></path><text xml:space="preserve" font-family="Helvetica-Light" font-size="79.2" fill="#000000" transform="matrix(1.00, 0.00, -0.00, -1.00, 250.0, 485.0)">R</text><text xml:space="preserve" font-family="Helvetica-Light" font-size="79.2" fill="#000000" transform="matrix(1.00, 0.00, -0.00, -1.00, 302.8, 485.0)">a</text><text xml:space="preserve" font-family="Helvetica-Light" font-size="79.2" fill="#000000" transform="matrix(1.00, 0.00, -0.00, -1.00, 346.9, 485.0)">s</text><text xml:space="preserve" font-family="Helvetica-Light" font-size="79.2" fill="#000000" transform="matrix(1.00, 0.00, -0.00, -1.00, 386.5, 485.0)">p</text><text xml:space="preserve" font-family="Helvetica-Light" font-size="79.2" fill="#000000" transform="matrix(1.00, 0.00, -0.00, -1.00, 434.9, 485.0)">b</text><text xml:space="preserve" font-family="Helvetica-Light" font-size="79.2" fill="#000000" transform="matrix(1.00, 0.00, -0.00, -1.00, 483.2, 485.0)">e</text><text xml:space="preserve" font-family="Helvetica-Light" font-size="79.2" fill="#000000" transform="matrix(1.00, 0.00, -0.00, -1.00, 527.3, 485.0)">r</text><text xml:space="preserve" font-family="Helvetica-Light" font-size="79.2" fill="#000000" transform="matrix(1.00, 0.00, -0.00, -1.00, 553.7, 485.0)">r</text><text xml:space="preserve" font-family="Helvetica-Light" font-size="79.2" fill="#000000" transform="matrix(1.00, 0.00, -0.00, -1.00, 581.5, 485.0)">y</text><text xml:space="preserve" font-family="Helvetica-Light" font-size="79.2" fill="#000000" transform="matrix(1.00, 0.00, -0.00, -1.00, 621.1, 485.0)"> </text><text xml:space="preserve" font-family="Helvetica-Light" font-size="79.2" fill="#000000" transform="matrix(1.00, 0.00, -0.00, -1.00, 643.1, 485.0)">P</text><text xml:space="preserve" font-family="Helvetica-Light" font-size="79.2" fill="#000000" transform="matrix(1.00, 0.00, -0.00, -1.00, 691.5, 485.0)">i</text><text xml:space="preserve" font-family="Helvetica-Light" font-size="79.2" fill="#000000" transform="matrix(1.00, 0.00, -0.00, -1.00, 709.0, 485.0)"> </text><text xml:space="preserve" font-family="Helvetica-Light" font-size="79.2" fill="#000000" transform="matrix(1.00, 0.00, -0.00, -1.00, 324.0, 399.0)">R</text><text xml:space="preserve" font-family="Helvetica-Light" font-size="79.2" fill="#000000" transform="matrix(1.00, 0.00, -0.00, -1.00, 376.8, 399.0)">o</text><text xml:space="preserve" font-family="Helvetica-Light" font-size="79.2" fill="#000000" transform="matrix(1.00, 0.00, -0.00, -1.00, 420.9, 399.0)">b</text><text xml:space="preserve" font-family="Helvetica-Light" font-size="79.2" fill="#000000" transform="matrix(1.00, 0.00, -0.00, -1.00, 469.3, 399.0)">o</text><text xml:space="preserve" font-family="Helvetica-Light" font-size="79.2" fill="#000000" transform="matrix(1.00, 0.00, -0.00, -1.00, 513.3, 399.0)">t</text><text xml:space="preserve" font-family="Helvetica-Light" font-size="79.2" fill="#000000" transform="matrix(1.00, 0.00, -0.00, -1.00, 535.3, 399.0)">i</text><text xml:space="preserve" font-family="Helvetica-Light" font-size="79.2" fill="#000000" transform="matrix(1.00, 0.00, -0.00, -1.00, 552.9, 399.0)">c</text><text xml:space="preserve" font-family="Helvetica-Light" font-size="79.2" fill="#000000" transform="matrix(1.00, 0.00, -0.00, -1.00, 596.9, 399.0)">s</text><text xml:space="preserve" font-family="TrebuchetMS" font-size="48.0" fill="#000000" transform="matrix(1.00, 0.00, -0.00, -1.00, 344.0, 318.0)">B</text><text xml:space="preserve" font-family="TrebuchetMS" font-size="48.0" fill="#000000" transform="matrix(1.00, 0.00, -0.00, -1.00, 371.2, 318.0)">r</text><text xml:space="preserve" font-family="TrebuchetMS" font-size="48.0" fill="#000000" transform="matrix(1.00, 0.00, -0.00, -1.00, 389.8, 318.0)">i</text><text xml:space="preserve" font-family="TrebuchetMS" font-size="48.0" fill="#000000" transform="matrix(1.00, 0.00, -0.00, -1.00, 403.5, 318.0)">a</text><text xml:space="preserve" font-family="TrebuchetMS" font-size="48.0" fill="#000000" transform="matrix(1.00, 0.00, -0.00, -1.00, 428.8, 318.0)">n</text><text xml:space="preserve" font-family="TrebuchetMS" font-size="48.0" fill="#000000" transform="matrix(1.00, 0.00, -0.00, -1.00, 455.0, 318.0)"> </text><text xml:space="preserve" font-family="TrebuchetMS" font-size="48.0" fill="#000000" transform="matrix(1.00, 0.00, -0.00, -1.00, 469.5, 318.0)">C</text><text xml:space="preserve" font-family="TrebuchetMS" font-size="48.0" fill="#000000" transform="matrix(1.00, 0.00, -0.00, -1.00, 498.2, 318.0)">o</text><text xml:space="preserve" font-family="TrebuchetMS" font-size="48.0" fill="#000000" transform="matrix(1.00, 0.00, -0.00, -1.00, 523.9, 318.0)">r</text><text xml:space="preserve" font-family="TrebuchetMS" font-size="48.0" fill="#000000" transform="matrix(1.00, 0.00, -0.00, -1.00, 542.6, 318.0)">t</text><text xml:space="preserve" font-family="TrebuchetMS" font-size="48.0" fill="#000000" transform="matrix(1.00, 0.00, -0.00, -1.00, 561.7, 318.0)">e</text><text xml:space="preserve" font-family="TrebuchetMS" font-size="48.0" fill="#000000" transform="matrix(1.00, 0.00, -0.00, -1.00, 587.9, 318.0)">i</text><text xml:space="preserve" font-family="TrebuchetMS" font-size="48.0" fill="#000000" transform="matrix(1.00, 0.00, -0.00, -1.00, 601.6, 318.0)">l</text><text xml:space="preserve" font-family="TrebuchetMS" font-size="40.0" fill="#000000" transform="matrix(1.00, 0.00, -0.00, -1.00, 26.0, 101.0)">T</text><text xml:space="preserve" font-family="TrebuchetMS" font-size="40.0" fill="#000000" transform="matrix(1.00, 0.00, -0.00, -1.00, 43.7, 101.0)">w</text><text xml:space="preserve" font-family="TrebuchetMS" font-size="40.0" fill="#000000" transform="matrix(1.00, 0.00, -0.00, -1.00, 73.5, 101.0)">i</text><text xml:space="preserve" font-family="TrebuchetMS" font-size="40.0" fill="#000000" transform="matrix(1.00, 0.00, -0.00, -1.00, 84.9, 101.0)">t</text><text xml:space="preserve" font-family="TrebuchetMS" font-size="40.0" fill="#000000" transform="matrix(1.00, 0.00, -0.00, -1.00, 100.8, 101.0)">t</text><text xml:space="preserve" font-family="TrebuchetMS" font-size="40.0" fill="#000000" transform="matrix(1.00, 0.00, -0.00, -1.00, 116.6, 101.0)">e</text><text xml:space="preserve" font-family="TrebuchetMS" font-size="40.0" fill="#000000" transform="matrix(1.00, 0.00, -0.00, -1.00, 138.5, 101.0)">r</text><text xml:space="preserve" font-family="TrebuchetMS" font-size="40.0" fill="#000000" transform="matrix(1.00, 0.00, -0.00, -1.00, 154.0, 101.0)">:</text><text xml:space="preserve" font-family="TrebuchetMS" font-size="40.0" fill="#000000" transform="matrix(1.00, 0.00, -0.00, -1.00, 168.7, 101.0)"> </text><text xml:space="preserve" font-family="TrebuchetMS" font-size="40.0" fill="#000000" transform="matrix(1.00, 0.00, -0.00, -1.00, 180.8, 101.0)">@</text><text xml:space="preserve" font-family="TrebuchetMS" font-size="40.0" fill="#000000" transform="matrix(1.00, 0.00, -0.00, -1.00, 211.6, 101.0)">C</text><text xml:space="preserve" font-family="TrebuchetMS" font-size="40.0" fill="#000000" transform="matrix(1.00, 0.00, -0.00, -1.00, 235.5, 101.0)">a</text><text xml:space="preserve" font-family="TrebuchetMS" font-size="40.0" fill="#000000" transform="matrix(1.00, 0.00, -0.00, -1.00, 256.5, 101.0)">n</text><text xml:space="preserve" font-family="TrebuchetMS" font-size="40.0" fill="#000000" transform="matrix(1.00, 0.00, -0.00, -1.00, 278.4, 101.0)">n</text><text xml:space="preserve" font-family="TrebuchetMS" font-size="40.0" fill="#000000" transform="matrix(1.00, 0.00, -0.00, -1.00, 300.3, 101.0)">o</text><text xml:space="preserve" font-family="TrebuchetMS" font-size="40.0" fill="#000000" transform="matrix(1.00, 0.00, -0.00, -1.00, 321.7, 101.0)">n</text><text xml:space="preserve" font-family="TrebuchetMS" font-size="40.0" fill="#000000" transform="matrix(1.00, 0.00, -0.00, -1.00, 343.6, 101.0)">F</text><text xml:space="preserve" font-family="TrebuchetMS" font-size="40.0" fill="#000000" transform="matrix(1.00, 0.00, -0.00, -1.00, 364.6, 101.0)">o</text><text xml:space="preserve" font-family="TrebuchetMS" font-size="40.0" fill="#000000" transform="matrix(1.00, 0.00, -0.00, -1.00, 386.0, 101.0)">d</text><text xml:space="preserve" font-family="TrebuchetMS" font-size="40.0" fill="#000000" transform="matrix(1.00, 0.00, -0.00, -1.00, 408.3, 101.0)">d</text><text xml:space="preserve" font-family="TrebuchetMS" font-size="40.0" fill="#000000" transform="matrix(1.00, 0.00, -0.00, -1.00, 430.6, 101.0)">e</text><text xml:space="preserve" font-family="TrebuchetMS" font-size="40.0" fill="#000000" transform="matrix(1.00, 0.00, -0.00, -1.00, 452.5, 101.0)">r</text><text xml:space="preserve" font-family="TrebuchetMS" font-size="40.0" fill="#000000" transform="matrix(1.00, 0.00, -0.00, -1.00, 467.9, 101.0)"> </text><text xml:space="preserve" font-family="TrebuchetMS" font-size="40.0" fill="#000000" transform="matrix(1.00, 0.00, -0.00, -1.00, 26.0, 54.0)">W</text><text xml:space="preserve" font-family="TrebuchetMS" font-size="40.0" fill="#000000" transform="matrix(1.00, 0.00, -0.00, -1.00, 58.3, 54.0)">e</text><text xml:space="preserve" font-family="TrebuchetMS" font-size="40.0" fill="#000000" transform="matrix(1.00, 0.00, -0.00, -1.00, 80.1, 54.0)">b</text><text xml:space="preserve" font-family="TrebuchetMS" font-size="40.0" fill="#000000" transform="matrix(1.00, 0.00, -0.00, -1.00, 102.4, 54.0)">:</text><text xml:space="preserve" font-family="TrebuchetMS" font-size="40.0" fill="#000000" transform="matrix(1.00, 0.00, -0.00, -1.00, 117.1, 54.0)"> </text><text xml:space="preserve" font-family="TrebuchetMS" font-size="40.0" fill="#000000" transform="matrix(1.00, 0.00, -0.00, -1.00, 129.1, 54.0)">w</text><text xml:space="preserve" font-family="TrebuchetMS" font-size="40.0" fill="#000000" transform="matrix(1.00, 0.00, -0.00, -1.00, 158.9, 54.0)">w</text><text xml:space="preserve" font-family="TrebuchetMS" font-size="40.0" fill="#000000" transform="matrix(1.00, 0.00, -0.00, -1.00, 188.7, 54.0)">w</text><text xml:space="preserve" font-family="TrebuchetMS" font-size="40.0" fill="#000000" transform="matrix(1.00, 0.00, -0.00, -1.00, 214.2, 54.0)">.</text><text xml:space="preserve" font-family="TrebuchetMS" font-size="40.0" fill="#000000" transform="matrix(1.00, 0.00, -0.00, -1.00, 228.9, 54.0)">c</text><text xml:space="preserve" font-family="TrebuchetMS" font-size="40.0" fill="#000000" transform="matrix(1.00, 0.00, -0.00, -1.00, 248.7, 54.0)">o</text><text xml:space="preserve" font-family="TrebuchetMS" font-size="40.0" fill="#000000" transform="matrix(1.00, 0.00, -0.00, -1.00, 270.1, 54.0)">r</text><text xml:space="preserve" font-family="TrebuchetMS" font-size="40.0" fill="#000000" transform="matrix(1.00, 0.00, -0.00, -1.00, 285.7, 54.0)">t</text><text xml:space="preserve" font-family="TrebuchetMS" font-size="40.0" fill="#000000" transform="matrix(1.00, 0.00, -0.00, -1.00, 301.6, 54.0)">e</text><text xml:space="preserve" font-family="TrebuchetMS" font-size="40.0" fill="#000000" transform="matrix(1.00, 0.00, -0.00, -1.00, 323.4, 54.0)">i</text><text xml:space="preserve" font-family="TrebuchetMS" font-size="40.0" fill="#000000" transform="matrix(1.00, 0.00, -0.00, -1.00, 334.8, 54.0)">l</text><text xml:space="preserve" font-family="TrebuchetMS" font-size="40.0" fill="#000000" transform="matrix(1.00, 0.00, -0.00, -1.00, 346.6, 54.0)">.</text><text xml:space="preserve" font-family="TrebuchetMS" font-size="40.0" fill="#000000" transform="matrix(1.00, 0.00, -0.00, -1.00, 361.3, 54.0)">c</text><text xml:space="preserve" font-family="TrebuchetMS" font-size="40.0" fill="#000000" transform="matrix(1.00, 0.00, -0.00, -1.00, 381.1, 54.0)">o</text><text xml:space="preserve" font-family="TrebuchetMS" font-size="40.0" fill="#000000" transform="matrix(1.00, 0.00, -0.00, -1.00, 402.6, 54.0)">.</text><text xml:space="preserve" font-family="TrebuchetMS" font-size="40.0" fill="#000000" transform="matrix(1.00, 0.00, -0.00, -1.00, 417.2, 54.0)">u</text><text xml:space="preserve" font-family="TrebuchetMS" font-size="40.0" fill="#000000" transform="matrix(1.00, 0.00, -0.00, -1.00, 439.1, 54.0)">k</text><text xml:space="preserve" font-family="TrebuchetMS" font-size="40.0" fill="#000000" transform="matrix(1.00, 0.00, -0.00, -1.00, 459.3, 54.0)">/</text><text xml:space="preserve" font-family="TrebuchetMS" font-size="40.0" fill="#000000" transform="matrix(1.00, 0.00, -0.00, -1.00, 26.0, 7.0)">B</text><text xml:space="preserve" font-family="TrebuchetMS" font-size="40.0" fill="#000000" transform="matrix(1.00, 0.00, -0.00, -1.00, 48.6, 7.0)">l</text><text xml:space="preserve" font-family="TrebuchetMS" font-size="40.0" fill="#000000" transform="matrix(1.00, 0.00, -0.00, -1.00, 60.4, 7.0)">o</text><text xml:space="preserve" font-family="TrebuchetMS" font-size="40.0" fill="#000000" transform="matrix(1.00, 0.00, -0.00, -1.00, 81.9, 7.0)">g</text></g></svg>