<?xml version="1.0" encoding="UTF-8" standalone="no"?><svg xmlns="http://www.w3.org/2000/svg" xmlns:xlink="http://www.w3.org/1999/xlink" clip-rule="evenodd" stroke-miterlimit="4.00" viewBox="0 0 960 540"><desc>SVG generated by Keynote</desc><defs></defs><g transform="matrix(1.00, 0.00, -0.00, -1.00, 0.0, 540.0)"><path d="M 0.0 540.0 L 960.0 540.0 L 960.0 0.0 L 0.0 0.0 Z M 0.0 540.0 " fill="#FFFFFF"></path><g><clipPath id="clip-65"><path d="M 99.6 267.2 L 860.4 267.2 L 860.4 448.0 L 99.6 448.0 Z M 99.6 267.2 "></path></clipPath><g clip-path="url(#clip-65)"><text xml:space="preserve" font-family="Helvetica-Light" font-size="96.0" fill="#000000" transform="matrix(1.00, 0.00, -0.00, -1.00, 179.0, 289.0)">M</text><text xml:space="preserve" font-family="Helvetica-Light" font-size="96.0" fill="#000000" transform="matrix(1.00, 0.00, -0.00, -1.00, 259.0, 289.0)">i</text><text xml:space="preserve" font-family="Helvetica-Light" font-size="96.0" fill="#000000" transform="matrix(1.00, 0.00, -0.00, -1.00, 280.3, 289.0)">c</text><text xml:space="preserve" font-family="Helvetica-Light" font-size="96.0" fill="#000000" transform="matrix(1.00, 0.00, -0.00, -1.00, 333.7, 289.0)">r</text><text xml:space="preserve" font-family="Helvetica-Light" font-size="96.0" fill="#000000" transform="matrix(1.00, 0.00, -0.00, -1.00, 363.9, 289.0)">o</text><text xml:space="preserve" font-family="Helvetica-Light" font-size="96.0" fill="#000000" transform="matrix(1.00, 0.00, -0.00, -1.00, 417.3, 289.0)"> </text><text xml:space="preserve" font-family="Helvetica-Light" font-size="96.0" fill="#000000" transform="matrix(1.00, 0.00, -0.00, -1.00, 444.0, 289.0)">P</text><text xml:space="preserve" font-family="Helvetica-Light" font-size="96.0" fill="#000000" transform="matrix(1.00, 0.00, -0.00, -1.00, 502.6, 289.0)">i</text><text xml:space="preserve" font-family="Helvetica-Light" font-size="96.0" fill="#000000" transform="matrix(1.00, 0.00, -0.00, -1.00, 523.9, 289.0)"> </text><text xml:space="preserve" font-family="Helvetica-Light" font-size="96.0" fill="#000000" transform="matrix(1.00, 0.00, -0.00, -1.00, 550.6, 289.0)">N</text><text xml:space="preserve" font-family="Helvetica-Light" font-size="96.0" fill="#000000" transform="matrix(1.00, 0.00, -0.00, -1.00, 619.9, 289.0)">o</text><text xml:space="preserve" font-family="Helvetica-Light" font-size="96.0" fill="#000000" transform="matrix(1.00, 0.00, -0.00, -1.00, 673.3, 289.0)">o</text><text xml:space="preserve" font-family="Helvetica-Light" font-size="96.0" fill="#000000" transform="matrix(1.00, 0.00, -0.00, -1.00, 726.7, 289.0)">n</text></g></g><text xml:space="preserve" font-family="TrebuchetMS" font-size="40.0" fill="#000000" transform="matrix(1.00, 0.00, -0.00, -1.00, 130.0, 215.0)">S</text><text xml:space="preserve" font-family="TrebuchetMS" font-size="40.0" fill="#000000" transform="matrix(1.00, 0.00, -0.00, -1.00, 149.2, 215.0)">u</text><text xml:space="preserve" font-family="TrebuchetMS" font-size="40.0" fill="#000000" transform="matrix(1.00, 0.00, -0.00, -1.00, 171.1, 215.0)">b</text><text xml:space="preserve" font-family="TrebuchetMS" font-size="40.0" fill="#000000" transform="matrix(1.00, 0.00, -0.00, -1.00, 193.4, 215.0)"> </text><text xml:space="preserve" font-family="TrebuchetMS" font-size="40.0" fill="#000000" transform="matrix(1.00, 0.00, -0.00, -1.00, 203.3, 215.0)">A</text><text xml:space="preserve" font-family="TrebuchetMS" font-size="40.0" fill="#000000" transform="matrix(1.00, 0.00, -0.00, -1.00, 226.8, 215.0)">6</text><text xml:space="preserve" font-family="TrebuchetMS" font-size="40.0" fill="#000000" transform="matrix(1.00, 0.00, -0.00, -1.00, 247.8, 215.0)"> </text><text xml:space="preserve" font-family="TrebuchetMS" font-size="40.0" fill="#000000" transform="matrix(1.00, 0.00, -0.00, -1.00, 259.9, 215.0)">B</text><text xml:space="preserve" font-family="TrebuchetMS" font-size="40.0" fill="#000000" transform="matrix(1.00, 0.00, -0.00, -1.00, 282.5, 215.0)">a</text><text xml:space="preserve" font-family="TrebuchetMS" font-size="40.0" fill="#000000" transform="matrix(1.00, 0.00, -0.00, -1.00, 303.6, 215.0)">l</text><text xml:space="preserve" font-family="TrebuchetMS" font-size="40.0" fill="#000000" transform="matrix(1.00, 0.00, -0.00, -1.00, 315.4, 215.0)">l</text><text xml:space="preserve" font-family="TrebuchetMS" font-size="40.0" fill="#000000" transform="matrix(1.00, 0.00, -0.00, -1.00, 327.1, 215.0)">o</text><text xml:space="preserve" font-family="TrebuchetMS" font-size="40.0" fill="#000000" transform="matrix(1.00, 0.00, -0.00, -1.00, 348.6, 215.0)">o</text><text xml:space="preserve" font-family="TrebuchetMS" font-size="40.0" fill="#000000" transform="matrix(1.00, 0.00, -0.00, -1.00, 370.0, 215.0)">n</text><text xml:space="preserve" font-family="TrebuchetMS" font-size="40.0" fill="#000000" transform="matrix(1.00, 0.00, -0.00, -1.00, 391.9, 215.0)"> </text><text xml:space="preserve" font-family="TrebuchetMS" font-size="40.0" fill="#000000" transform="matrix(1.00, 0.00, -0.00, -1.00, 404.0, 215.0)">P</text><text xml:space="preserve" font-family="TrebuchetMS" font-size="40.0" fill="#000000" transform="matrix(1.00, 0.00, -0.00, -1.00, 424.4, 215.0)">o</text><text xml:space="preserve" font-family="TrebuchetMS" font-size="40.0" fill="#000000" transform="matrix(1.00, 0.00, -0.00, -1.00, 445.8, 215.0)">p</text><text xml:space="preserve" font-family="TrebuchetMS" font-size="40.0" fill="#000000" transform="matrix(1.00, 0.00, -0.00, -1.00, 468.1, 215.0)">p</text><text xml:space="preserve" font-family="TrebuchetMS" font-size="40.0" fill="#000000" transform="matrix(1.00, 0.00, -0.00, -1.00, 490.4, 215.0)">i</text><text xml:space="preserve" font-family="TrebuchetMS" font-size="40.0" fill="#000000" transform="matrix(1.00, 0.00, -0.00, -1.00, 501.8, 215.0)">n</text><text xml:space="preserve" font-family="TrebuchetMS" font-size="40.0" fill="#000000" transform="matrix(1.00, 0.00, -0.00, -1.00, 523.7, 215.0)">g</text><text xml:space="preserve" font-family="TrebuchetMS" font-size="40.0" fill="#000000" transform="matrix(1.00, 0.00, -0.00, -1.00, 543.8, 215.0)"> </text><text xml:space="preserve" font-family="TrebuchetMS" font-size="40.0" fill="#000000" transform="matrix(1.00, 0.00, -0.00, -1.00, 555.8, 215.0)">F</text><text xml:space="preserve" font-family="TrebuchetMS" font-size="40.0" fill="#000000" transform="matrix(1.00, 0.00, -0.00, -1.00, 576.8, 215.0)">i</text><text xml:space="preserve" font-family="TrebuchetMS" font-size="40.0" fill="#000000" transform="matrix(1.00, 0.00, -0.00, -1.00, 588.2, 215.0)">g</text><text xml:space="preserve" font-family="TrebuchetMS" font-size="40.0" fill="#000000" transform="matrix(1.00, 0.00, -0.00, -1.00, 608.3, 215.0)">h</text><text xml:space="preserve" font-family="TrebuchetMS" font-size="40.0" fill="#000000" transform="matrix(1.00, 0.00, -0.00, -1.00, 630.2, 215.0)">t</text><text xml:space="preserve" font-family="TrebuchetMS" font-size="40.0" fill="#000000" transform="matrix(1.00, 0.00, -0.00, -1.00, 646.1, 215.0)">i</text><text xml:space="preserve" font-family="TrebuchetMS" font-size="40.0" fill="#000000" transform="matrix(1.00, 0.00, -0.00, -1.00, 657.5, 215.0)">n</text><text xml:space="preserve" font-family="TrebuchetMS" font-size="40.0" fill="#000000" transform="matrix(1.00, 0.00, -0.00, -1.00, 679.4, 215.0)">g</text><text xml:space="preserve" font-family="TrebuchetMS" font-size="40.0" fill="#000000" transform="matrix(1.00, 0.00, -0.00, -1.00, 699.4, 215.0)"> </text><text xml:space="preserve" font-family="TrebuchetMS" font-size="40.0" fill="#000000" transform="matrix(1.00, 0.00, -0.00, -1.00, 711.5, 215.0)">R</text><text xml:space="preserve" font-family="TrebuchetMS" font-size="40.0" fill="#000000" transform="matrix(1.00, 0.00, -0.00, -1.00, 733.2, 215.0)">o</text><text xml:space="preserve" font-family="TrebuchetMS" font-size="40.0" fill="#000000" transform="matrix(1.00, 0.00, -0.00, -1.00, 754.6, 215.0)">b</text><text xml:space="preserve" font-family="TrebuchetMS" font-size="40.0" fill="#000000" transform="matrix(1.00, 0.00, -0.00, -1.00, 776.9, 215.0)">o</text><text xml:space="preserve" font-family="TrebuchetMS" font-size="40.0" fill="#000000" transform="matrix(1.00, 0.00, -0.00, -1.00, 798.4, 215.0)">t</text><text xml:space="preserve" font-family="TrebuchetMS" font-size="40.0" fill="#000000" transform="matrix(1.00, 0.00, -0.00, -1.00, 814.2, 215.0)">s</text></g></svg>