<?xml version="1.0" encoding="UTF-8" standalone="no"?><svg xmlns="http://www.w3.org/2000/svg" xmlns:xlink="http://www.w3.org/1999/xlink" clip-rule="evenodd" stroke-miterlimit="4.00" viewBox="0 0 960 540"><desc>SVG generated by Keynote</desc><defs></defs><g transform="matrix(1.00, 0.00, -0.00, -1.00, 0.0, 540.0)"><path d="M 0.0 540.0 L 960.0 540.0 L 960.0 0.0 L 0.0 0.0 Z M 0.0 540.0 " fill="#FFFFFF"></path><image xlink:href="BBE3DAE4FD9FBD826873206C8527F18A.jpeg" width="590.00" height="442.00" transform="matrix(1.00, 0.00, -0.00, -1.00, 185.0, 520.0)"></image><g><clipPath id="clip-62"><path d="M 66.8 12.0 L 908.7 12.0 L 908.7 53.8 L 66.8 53.8 Z M 66.8 12.0 "></path></clipPath><g clip-path="url(#clip-62)"><text xml:space="preserve" font-family="TrebuchetMS" font-size="36.4" fill="#000000" transform="matrix(1.00, 0.00, -0.00, -1.00, 374.0, 20.0)">2</text><text xml:space="preserve" font-family="TrebuchetMS" font-size="36.4" fill="#000000" transform="matrix(1.00, 0.00, -0.00, -1.00, 393.1, 20.0)">0</text><text xml:space="preserve" font-family="TrebuchetMS" font-size="36.4" fill="#000000" transform="matrix(1.00, 0.00, -0.00, -1.00, 412.2, 20.0)">1</text><text xml:space="preserve" font-family="TrebuchetMS" font-size="36.4" fill="#000000" transform="matrix(1.00, 0.00, -0.00, -1.00, 431.3, 20.0)">4</text><text xml:space="preserve" font-family="TrebuchetMS" font-size="36.4" fill="#000000" transform="matrix(1.00, 0.00, -0.00, -1.00, 450.4, 20.0)">:</text><text xml:space="preserve" font-family="TrebuchetMS" font-size="36.4" fill="#000000" transform="matrix(1.00, 0.00, -0.00, -1.00, 463.8, 20.0)"> </text><text xml:space="preserve" font-family="TrebuchetMS" font-size="36.4" fill="#000000" transform="matrix(1.00, 0.00, -0.00, -1.00, 474.8, 20.0)">P</text><text xml:space="preserve" font-family="TrebuchetMS" font-size="36.4" fill="#000000" transform="matrix(1.00, 0.00, -0.00, -1.00, 495.0, 20.0)">y</text><text xml:space="preserve" font-family="TrebuchetMS" font-size="36.4" fill="#000000" transform="matrix(1.00, 0.00, -0.00, -1.00, 513.0, 20.0)">r</text><text xml:space="preserve" font-family="TrebuchetMS" font-size="36.4" fill="#000000" transform="matrix(1.00, 0.00, -0.00, -1.00, 527.1, 20.0)">o</text><text xml:space="preserve" font-family="TrebuchetMS" font-size="36.4" fill="#000000" transform="matrix(1.00, 0.00, -0.00, -1.00, 546.7, 20.0)">B</text><text xml:space="preserve" font-family="TrebuchetMS" font-size="36.4" fill="#000000" transform="matrix(1.00, 0.00, -0.00, -1.00, 567.2, 20.0)">o</text><text xml:space="preserve" font-family="TrebuchetMS" font-size="36.4" fill="#000000" transform="matrix(1.00, 0.00, -0.00, -1.00, 586.7, 20.0)">t</text></g></g></g></svg>